<svg xmlns="http://www.w3.org/2000/svg" xmlns:xlink="http://www.w3.org/1999/xlink" xmlns:lucid="lucid" width="1501" height="1461.94"><g transform="translate(275.83333333333326 444.3050915354295)" lucid:page-tab-id="0_0"><path d="M-197.12 290.7a6 6 0 0 1 6-6h450.7a6 6 0 0 1 6 6v448a6 6 0 0 1-6 6h-450.7a6 6 0 0 1-6-6z" fill-opacity="0"/><path d="M-195.87 287.05l.5-.6.6-.5m2.87-1.2l.78-.06h1m4 0h2m4.02 0h2m4 0h2m4.02 0h2m4 0h2m4.02 0h2m4 0h2m4.02 0h2m4 0h2m4 0h2.02m4 0h2m4 0h2.02m4 0h2m4 0h2.02m4 0h2m4 0h2m4.02 0h2m4 0h2m4.02 0h2m4 0h2m4.02 0h2m4 0h2m4.02 0h2m4 0h2m4.02 0h2m4 0h2m4 0h2.02m4 0h2m4 0h2m4.02 0h2m4 0h2m4.02 0h2m4 0h2m4.02 0h2m4 0h2m4.02 0h2m4 0h2m4.02 0h2m4 0h2m4 0h2.02m4 0h2m4 0h2.02m4 0h2m4 0h2.02m4 0h2m4 0h2m4.02 0h2m4 0h2m4.02 0h2m4 0h2m4.02 0h2m4 0h2m4.02 0h2m4 0h2m4 0h2.02m4 0h2m4 0h2.02m4 0h2m4 0h2m4.02 0h2m4 0h2m4.02 0h2m4 0h2m4.02 0h2m4 0h2m4.02 0h2m4 0h2m4 0h2.02m4 0h2m4 0h2.02m4 0h2m4 0h2.02m4 0h2m4 0h2m4.02 0h1l.78.06m2.87 1.18l.6.5.5.6m1.2 2.87l.05.8v1m0 3.97v2m0 3.98v2m0 3.97v2m0 3.97v1.98m0 4v1.98m0 3.98v2m0 3.97v2m0 4v1.98m0 3.98v2m0 3.97v2m0 3.98v2m0 3.98v2m0 3.97v2m0 3.98v2m0 3.97v2m0 3.97v2m0 3.98v2m0 3.97v2m0 3.97v1.98m0 4v1.98m0 3.98v2m0 3.97v2m0 4v1.98m0 3.98v2m0 3.97v2m0 3.98v2m0 3.98v2m0 3.97v2m0 3.98v2m0 3.97v2m0 3.97v2m0 3.98v2m0 3.97v2m0 3.97v1.98m0 4v1.98m0 3.98v2m0 3.97v2m0 4v1.98m0 3.98v2m0 3.97v2m0 3.98v2m0 3.98v2m0 3.97v2m0 3.98v2m0 3.97v2m0 3.97v2m0 3.98v2m0 3.97v2m0 3.97v1.98m0 4v1.98m0 3.98v2m0 3.97v2m0 4v1.98m0 3.98v2m0 3.97v2m0 3.98v2m0 3.98v2m0 3.97v2m0 3.98v2m0 3.97v2m0 3.97v2m0 3.98v2m0 3.97v2m0 3.97v1.98m0 4v1.98m0 3.98v2m0 3.97v2m0 4v1.98m0 3.98v2m0 3.97v2m0 3.98v2m0 3.98v2m0 3.97v2m0 3.98v2m0 3.97v1l-.06.78m-1.2 2.86l-.5.6-.6.5m-2.86 1.2l-.78.06h-1m-4 0h-2m-4.02 0h-2m-4 0h-2m-4 0h-2.02m-4 0h-2m-4 0h-2.02m-4 0h-2m-4 0h-2m-4.02 0h-2m-4 0h-2m-4.02 0h-2m-4 0h-2m-4.02 0h-2m-4 0h-2m-4.02 0h-2m-4 0h-2m-4 0h-2.02m-4 0h-2m-4 0h-2.02m-4 0h-2m-4 0h-2.02m-4 0h-2m-4 0h-2m-4.02 0h-2m-4 0h-2m-4.02 0h-2m-4 0h-2m-4.02 0h-2m-4 0h-2m-4.02 0h-2m-4 0h-2m-4.02 0h-2m-4 0h-2m-4 0h-2.02m-4 0h-2m-4 0h-2.02m-4 0h-2m-4 0h-2m-4.02 0h-2m-4 0h-2m-4.02 0h-2m-4 0h-2m-4.02 0h-2m-4 0h-2m-4.02 0h-2m-4 0h-2m-4 0h-2.02m-4 0h-2m-4 0h-2.02m-4 0h-2m-4 0h-2.02m-4 0h-2m-4 0h-2m-4.02 0h-2m-4 0h-2m-4.02 0h-2m-4 0h-2m-4.02 0h-2m-4 0h-2m-4.02 0h-2m-4 0h-2m-4 0H-114m-4 0h-2m-4 0h-2.02m-4 0h-2m-4 0h-2m-4.02 0h-2m-4 0h-2m-4.02 0h-2m-4 0h-2m-4.02 0h-2m-4 0h-2m-4.02 0h-2m-4 0h-2m-4.02 0h-1l-.78-.07m-2.86-1.18l-.6-.5-.5-.6m-1.2-2.87l-.06-.78v-1m0-3.98v-2m0-3.98v-2m0-3.97v-2m0-3.97v-2m0-3.98v-2m0-3.97v-2m0-3.97v-2m0-3.98v-2m0-3.97v-2m0-3.97v-2m0-3.98v-2m0-3.97v-1.98m0-3.98v-2m0-3.98v-2m0-3.97v-2m0-3.98v-2m0-3.98v-2m0-3.97v-2m0-3.97v-2m0-3.98v-2m0-3.97v-2m0-3.97v-2m0-3.98v-2m0-3.97v-2m0-3.97v-2m0-3.98v-2m0-3.97v-1.98m0-3.98v-2m0-3.98v-2m0-3.97v-2m0-3.98v-2m0-3.98v-2m0-3.97v-2m0-3.97v-2m0-3.98v-2m0-3.97v-2m0-3.97v-2m0-3.98v-2m0-3.97v-2m0-3.97v-2m0-3.98v-2m0-3.97v-1.98m0-3.98v-2m0-3.98v-2m0-3.97v-2m0-3.98v-2m0-3.98v-2m0-3.97v-2m0-3.97v-2m0-3.98v-2m0-3.97v-2m0-3.97v-2m0-3.98v-2m0-3.97v-2m0-3.97v-2m0-3.98v-2m0-3.97v-1.98m0-3.98v-2m0-3.98v-2m0-3.97v-2m0-3.98v-2m0-3.98v-2m0-3.97v-2m0-3.97v-2m0-3.98v-2m0-3.97v-2m0-3.97v-2m0-3.98v-2m0-3.97v-2m0-3.97v-2m0-3.98v-2m0-3.97v-1.98m0-3.98v-2m0-3.98v-2m0-3.97v-1l.06-.8" stroke="#e81313" fill="none"/><use xlink:href="#a" transform="matrix(1,0,0,1,-189.11657271278045,292.6949084645705) translate(0 17.77777777777778)"/><path d="M355.22 289.4a6 6 0 0 1 6-6h608a6 6 0 0 1 6 6v353.85a6 6 0 0 1-6 6h-608a6 6 0 0 1-6-6z" fill-opacity="0"/><path d="M356.47 285.74l.5-.6.6-.5m2.87-1.2l.78-.05h1m4.02 0h2m4.02 0h2m4.02 0h2m4.02 0h2m4.02 0h2m4.02 0h2m4.02 0h2m4.02 0h2m4.02 0h2m4.02 0h2m4.02 0h2m4.02 0h2m4.02 0h2m4.02 0h2m4.02 0h2m4.02 0h2m4 0h2.02m4 0h2.02m4.02 0h2m4 0h2.02m4 0h2.02m4 0h2.02m4 0h2.02m4 0h2.02m4 0h2.02m4 0h2.02m4 0h2.02m4 0h2.02m4 0h2.02m4 0h2.02m4 0h2.02m4 0h2.02m4 0h2.02m4 0h2.02m4 0h2.02m4 0h2.02m4 0h2.02m4 0H591m4 0H597m4 0h2.02m4 0h2.02m4 0h2.02m4 0h2.02m4 0h2.02m4 0h2.02m4 0h2.02m4 0h2.02m4 0h2.02m4 0h2.02m4 0h2m4.03 0h2m4.02 0h2m4.02 0h2m4.02 0h2m4 0h2m4.03 0h2m4.02 0h2m4.02 0h2m4.02 0h2m4 0h2m4.03 0h2m4.02 0h2m4.02 0h2m4.02 0h2m4 0h2m4.03 0h2m4 0h2.02m4.02 0h2m4 0h2.02m4 0h2m4.02 0h2m4.02 0h2m4.02 0h2m4.02 0h2m4.02 0h2m4.02 0h2m4.02 0h2m4.02 0h2m4.02 0h2m4.02 0h2m4.02 0h2m4.02 0h2m4.02 0h2m4.02 0h2m4.02 0h2m4.02 0h2m4.02 0h2m4.02 0h2m4.02 0h2m4.02 0h2m4.02 0h2m4.02 0h2m4.02 0h2m4.02 0h2m4.02 0h2m4.02 0h2m4.02 0h2m4.02 0h2m4.02 0h2m4.02 0h2m4.02 0h1l.78.05m2.87 1.2l.6.5.5.6m1.2 2.86l.05.8v1m0 4v1.98m0 4v2m0 4v2m0 4v2m0 4v2m0 4v2m0 4v2m0 4v2m0 4v2m0 4v1.98m0 4v2m0 4v2m0 4v2m0 4v2m0 4v2m0 4v2m0 4v2m0 4v2m0 3.98v2m0 4v2m0 4v2m0 4v2m0 4v2m0 4v2m0 4v2m0 4v2m0 4v2m0 3.98v2m0 4v2m0 4v2m0 4v2m0 4v2m0 4v2m0 4v2m0 4v2m0 4v2m0 3.98v2m0 4v2m0 4v2m0 4v2m0 4v2m0 4v2m0 4v2m0 4v2m0 4v1.98m0 4v2m0 4v2m0 4v2m0 4v2m0 4v2m0 4v2m0 4v2m0 4v2m0 4v1.98m0 4v2m0 4v2m0 4v2m0 4v2m0 4v1l-.06.77m-1.2 2.87l-.5.6-.6.5m-2.86 1.2l-.78.05h-1m-4 0h-2.02m-4 0h-2.02m-4 0h-2.02m-4 0h-2.02m-4 0h-2.02m-4 0h-2.02m-4 0h-2.02m-4 0h-2.02m-4 0h-2.02m-4 0H908m-4 0H902m-4 0h-2.02m-4 0h-2.02m-4 0h-2.02m-4 0h-2.02m-4 0h-2.02m-4 0h-2.02m-4 0h-2.02m-4 0h-2.02m-4 0h-2.02m-4 0h-2.02m-4 0h-2.02m-4 0h-2.02m-4 0h-2.02m-4 0h-2.02m-4 0h-2.02m-4 0h-2.02m-4 0h-2.02m-4 0h-2.02m-4 0h-2m-4.03 0h-2m-4 0h-2m-4.03 0h-2m-4.02 0h-2m-4.02 0h-2m-4.02 0h-2m-4 0h-2m-4.03 0h-2m-4.02 0h-2m-4.02 0h-2m-4.02 0h-2m-4 0h-2m-4.03 0h-2m-4.02 0h-2m-4.02 0h-2m-4.02 0h-2m-4 0h-2m-4.02 0h-2m-4.02 0h-2m-4.02 0h-2m-4.02 0h-2m-4.02 0h-2m-4.02 0h-2m-4.02 0h-2m-4.02 0h-2m-4.02 0h-2m-4.02 0h-2m-4.02 0h-2m-4.02 0h-2m-4.02 0h-2m-4.02 0h-2m-4.02 0h-2m-4.02 0h-2m-4.02 0h-2m-4.02 0h-2m-4.02 0h-2m-4.02 0h-2m-4.02 0h-2m-4.02 0h-2m-4.02 0h-2m-4.02 0h-2m-4.02 0h-2m-4.02 0h-2m-4.02 0h-2m-4.02 0h-2m-4.02 0h-2m-4.02 0h-2m-4.02 0h-2m-4.02 0h-2m-4.02 0h-2m-4.02 0h-2m-4.02 0h-2m-4.02 0h-2m-4.02 0h-2m-4.02 0h-2m-4.02 0h-2m-4.02 0h-2m-4.02 0h-2m-4.02 0h-2m-4.02 0h-2m-4.02 0h-2m-4.02 0h-2m-4.02 0h-2m-4.02 0h-2m-4.02 0h-2m-4.02 0h-2m-4 0h-2.02m-4 0h-2.02m-4 0h-2.02m-4 0h-2.02m-4 0h-1.02l-.78-.06m-2.86-1.2l-.6-.5-.5-.6m-1.2-2.87l-.06-.78v-1m0-4v-2m0-4v-2m0-4v-2m0-4v-2m0-4v-2m0-3.98v-2m0-4v-2m0-4v-2m0-4v-2m0-4v-2m0-4v-2m0-4v-2m0-4v-2m0-4v-2m0-3.98v-2m0-4v-2m0-4v-2m0-4v-2m0-4v-2m0-4v-2m0-4v-2m0-4v-2m0-4v-2m0-4v-2m0-4v-2m0-4v-2m0-4v-2m0-3.98v-2m0-4v-2m0-4v-2m0-4v-2m0-4v-2m0-4v-2m0-4v-2m0-4v-2m0-4v-2m0-3.98v-2m0-4v-2m0-4v-2m0-4v-2m0-4v-2m0-4v-2m0-4v-2m0-4v-2m0-3.98v-2m0-4v-2m0-4v-2m0-4v-2m0-4v-2m0-4v-2m0-4v-2m0-4v-2m0-4v-2m0-4v-1.98m0-4v-2m0-4v-2m0-4v-2m0-4v-2m0-4v-1l.06-.77" stroke="#e81313" fill="none"/><use xlink:href="#b" transform="matrix(1,0,0,1,363.22205673208265,291.3869445327298) translate(0 17.955555555555552)"/><path d="M625.22 713.2a6 6 0 0 1 6-6h528a6 6 0 0 1 6 6v238a6 6 0 0 1-6 6h-528a6 6 0 0 1-6-6z" fill-opacity="0"/><path d="M626.47 709.55l.5-.6.6-.5m2.87-1.2l.78-.05h1m4 0h2m4 0h2m4 0h2m4 0h2m4 0h2m4 0h2m4 0h2m4 0h2m4 0h2m4 0h2m4 0h2m4 0h2m4 0h2m4 0h2m4 0h2m4 0h2m4 0h2m4 0h2m4 0h2m4 0h2m4 0h2m4 0h2m4 0h2m4 0h2m4 0h2m4 0h2m4 0h2m4 0h2m4 0h2m4 0h2m4 0h2m4 0h2m4 0h2m4 0h2m4 0h2m4 0h2m4 0h2m4 0h2m4 0h2m4 0h2m4 0h2m4 0h2m4 0h2m4 0h2m4 0h2m4 0h2m4 0h2m4 0h2m4 0h2m4 0h2m4 0h2m4 0h2m4 0h2m4 0h2m4 0h2m4 0h2m4 0h2m4 0h2m4 0h2m4 0h2m4 0h2m4 0h2m4 0h2m4 0h2m4 0h2m4 0h2m4 0h2m4 0h2m4 0h2m4 0h2m4 0h2m4 0h2m4 0h2m4 0h2m4 0h2m4 0h2m4 0h2m4 0h2m4 0h2m4 0h2m4 0h2m4 0h2m4 0h2m4 0h2m4 0h2m4 0h2m4 0h2m4 0h1l.78.06m2.87 1.18l.6.5.5.6m1.2 2.87l.05.8v1m0 3.95v2m0 3.95v2m0 3.95v2m0 3.95v2m0 3.95v2m0 3.95v2m0 3.95v2m0 3.95v2m0 3.95v2m0 3.95v2m0 3.95v2m0 3.95v2m0 3.95v2m0 3.95v2m0 3.95v2m0 3.95v2m0 3.95v2m0 3.95v2m0 3.95v2m0 3.95v2m0 3.95v2m0 3.95v2m0 3.95v2m0 3.95v2m0 3.95v2m0 3.95v2m0 3.95v2m0 3.95v2m0 3.95v2m0 3.95v2m0 3.95v2m0 3.95v2m0 3.95v2m0 3.95v2m0 3.95v2m0 3.95v2m0 3.95v2m0 3.95v2m0 3.95v2m0 3.95v1l-.06.78m-1.2 2.86l-.5.6-.6.5m-2.86 1.2l-.78.06h-1m-4 0h-2m-4 0h-2m-4 0h-2m-4 0h-2m-4 0h-2m-4 0h-2m-4 0h-2m-4 0h-2m-4 0h-2m-4 0h-2m-4 0h-2m-4 0h-2m-4 0h-2m-4 0h-2m-4 0h-2m-4 0h-2m-4 0h-2m-4 0h-2m-4 0h-2m-4 0h-2m-4 0h-2m-4 0h-2m-4 0h-2m-4 0h-2m-4 0h-2m-4 0h-2m-4 0h-2m-4 0h-2m-4 0h-2m-4 0h-2m-4 0h-2m-4 0h-2m-4 0h-2m-4 0h-2m-4 0h-2m-4 0h-2m-4 0h-2m-4 0h-2m-4 0h-2m-4 0h-2m-4 0h-2m-4 0h-2m-4 0h-2m-4 0h-2m-4 0h-2m-4 0h-2m-4 0h-2m-4 0h-2m-4 0h-2m-4 0h-2m-4 0h-2m-4 0h-2m-4 0h-2m-4 0h-2m-4 0h-2m-4 0h-2m-4 0h-2m-4 0h-2m-4 0h-2m-4 0h-2m-4 0h-2m-4 0h-2m-4 0h-2m-4 0h-2m-4 0h-2m-4 0h-2m-4 0h-2m-4 0h-2m-4 0h-2m-4 0h-2m-4 0h-2m-4 0h-2m-4 0h-2m-4 0h-2m-4 0h-2m-4 0h-2m-4 0h-2m-4 0h-2m-4 0h-2m-4 0h-2m-4 0h-2m-4 0h-2m-4 0h-2m-4 0h-2m-4 0h-2m-4 0h-2m-4 0h-2m-4 0h-1l-.78-.07m-2.86-1.18l-.6-.5-.5-.6m-1.2-2.87l-.06-.78v-1m0-3.96v-2m0-3.95v-2m0-3.96v-2m0-3.95v-2m0-3.96v-2m0-3.95v-2m0-3.96v-2m0-3.95v-2m0-3.96v-2m0-3.95v-2m0-3.96v-2m0-3.95v-2m0-3.96v-2m0-3.95v-2m0-3.96v-2m0-3.95v-2m0-3.96v-2m0-3.95v-2m0-3.96v-2m0-3.95v-2m0-3.96v-2m0-3.95v-2m0-3.96v-2m0-3.95v-2m0-3.96v-2m0-3.95v-2m0-3.96v-2m0-3.95v-2m0-3.96v-2m0-3.95v-2m0-3.96v-2m0-3.95v-2m0-3.96v-2m0-3.95v-2m0-3.96v-2m0-3.95v-2m0-3.96v-2m0-3.95v-2m0-3.96v-2m0-3.95v-1l.06-.8" stroke="#e81313" fill="none"/><use xlink:href="#c" transform="matrix(1,0,0,1,633.2220567320828,715.1949084645705) translate(0 17.77777777777778)"/><path d="M-255.33-417.8a6 6 0 0 1 6-6h1448a6 6 0 0 1 6 6V991.13a6 6 0 0 1-6 6h-1448a6 6 0 0 1-6-6z" stroke="#3a414a" fill-opacity="0"/><use xlink:href="#d" transform="matrix(1,0,0,1,-247.33333333333326,-415.8050915354295) translate(21 28.444444444444436)"/><use xlink:href="#e" transform="matrix(1,0,0,1,-247.33333333333326,-415.8050915354295) translate(93.88888888888887 28.444444444444436)"/><use xlink:href="#f" transform="matrix(1,0,0,1,-247.33333333333326,-415.8050915354295) translate(202.23456790123453 28.444444444444436)"/><use xlink:href="#g" transform="matrix(1,0,0,1,-247.33333333333326,-415.8050915354295) translate(405.0987654320986 28.444444444444436)"/><path d="M987.67 137.07a10 10 0 0 1 10-10h110.25a10 10 0 0 1 10 10v41.25a10 10 0 0 1-10 10H997.67a10 10 0 0 1-10-10z" stroke="#3a414a" fill="#fff"/><use xlink:href="#h" transform="matrix(1,0,0,1,999.6705464915774,139.06990846457052) translate(15.320987654320987 22.52777777777778)"/><path d="M1118.92 157.7h5.58m5.6 0h11.15m5.6 0h5.57l.94.07.92.22.86.35.8.5.72.6.62.72.5.8.35.87.22.92.07.94v5.05m0 5.05v10.1m0 5.06v10.1m0 5.06v10.1m0 5.06v10.1m0 5.06v10.1m0 5.06v10.1m0 5.06v10.1m0 5.06v10.1m0 5.05v10.1m0 5.06v10.1m0 5.06v10.1m0 5.05v10.1m0 5.06v10.12m0 5.05v10.1m0 5.06v10.1m0 5.06v10.1m0 5.05v10.1m0 5.06v10.1m0 5.06v10.1m0 5.06v10.1m0 5.06v10.1m0 5.06v10.1m0 5.06v10.1m0 5.06v10.1m0 5.06v10.1m0 5.06v10.1m0 5.06v10.1m0 5.06v10.1m0 5.06v10.1m0 5.05v10.12m0 5.05v10.1m0 5.06v10.1m0 5.06V669m0 5.05v10.1m0 5.06v10.12m0 5.05v10.1m0 5.06v10.1m0 5.06v10.1m0 5.05v10.1m0 5.06v10.1m0 5.06v10.1m0 5.06v10.1m0 5.06v10.1m0 5.06v5.06l-.07.93-.22.92-.36.87-.5.8-.6.72-.72.6-.8.5-.88.36-.9.22-.95.08h-4.7m-4.7 0h-9.37m-4.7 0h-9.38m-4.7 0h-9.4m-4.68 0h-4.7l-.94.07-.92.22-.87.35-.8.5-.72.6-.6.72-.5.8-.36.87-.23.92-.07.94v5.87m0 5.87v5.87" stroke="#3a414a" fill="none"/><path d="M1118.93 158.17h-.5v-.95h.5z" stroke="#3a414a" stroke-width=".05" fill="#3a414a"/><path d="M1090.1 875.08l-4.64-14.27h9.27z" stroke="#3a414a" fill="#3a414a"/><path d="M1034.97 887.2a10 10 0 0 1 10-10h90.25a10 10 0 0 1 10 10v27.5a10 10 0 0 1-10 10h-90.25a10 10 0 0 1-10-10z" stroke="#3a414a" fill="#fff"/><use xlink:href="#i" transform="matrix(1,0,0,1,1046.9720817320826,889.1949084645705) translate(7.728395061728392 19.27777777777778)"/><path d="M805.75 744.7a10 10 0 0 1 10-10h140a10 10 0 0 1 10 10v52.5a10 10 0 0 1-10 10h-140a10 10 0 0 1-10-10z" stroke="#3a414a" fill="#fff"/><use xlink:href="#j" transform="matrix(1,0,0,1,817.7464522880052,746.6949084645705) translate(-2.8950617283950635 28.944444444444443)"/><path d="M966.75 770.95h4.6m4.6 0h9.2m4.6 0h4.6l.95.07.9.22.88.36.8.5.72.6.6.72.5.8.37.87.2.9.1.95v4.9m0 4.93v9.83m0 4.93v9.83m0 4.92v9.84m0 4.9v9.85m0 4.9v9.85m0 4.9v9.85m0 4.92v9.82m0 4.92v4.92l.06.93.22.9.36.88.5.8.62.72.7.6.8.5.88.36.92.22.94.08h3.9m3.92 0h3.9" stroke="#3a414a" fill="none"/><path d="M966.76 771.42h-.5v-.95h.5z" stroke="#3a414a" stroke-width=".05" fill="#3a414a"/><path d="M1032.85 900.96l-14.26 4.63v-9.28z" stroke="#3a414a" fill="#3a414a"/><path d="M848.26 717.8V713m0-4.84v-9.67m0-4.83v-9.67m0-4.84v-9.66m0-4.84v-9.67m0-4.83v-9.67m0-4.84v-9.66m0-4.84v-9.67m0-4.83v-9.67m0-4.84v-9.66m0-4.83v-4.83l-.07-.93-.23-.92-.36-.87-.5-.8-.6-.72-.7-.6-.8-.5-.88-.36-.92-.22-.94-.08H838m-4.3 0h-8.54m-4.27 0h-4.3l-.93-.07-.9-.22-.88-.36-.82-.5-.7-.6-.63-.72-.5-.8-.35-.87-.22-.92-.07-.93v-4.87m0-4.88v-9.75m0-4.88v-9.76m0-4.88V512m0-4.86v-9.76m0-4.87v-9.75m0-4.87v-9.75m0-4.88v-9.75m0-4.88v-9.75m0-4.88v-9.76m0-4.88v-9.75m0-4.87v-4.87" stroke="#3a414a" fill="none"/><path d="M848.26 732.58l-4.63-14.27h9.27z" stroke="#3a414a" fill="#3a414a"/><path d="M811.08 399.87h-.95v-.5h.95z" stroke="#3a414a" stroke-width=".05" fill="#3a414a"/><path d="M706 328.86a10 10 0 0 1 10-10h189.22a10 10 0 0 1 10 10v60a10 10 0 0 1-10 10H716a10 10 0 0 1-10-10z" stroke="#3a414a" fill="#fff"/><use xlink:href="#k" transform="matrix(1,0,0,1,717.9964272880054,330.8558937666437) translate(25.839506172839506 21.27777777777778)"/><use xlink:href="#l" transform="matrix(1,0,0,1,717.9964272880054,330.8558937666437) translate(48.70987654320987 47.94444444444444)"/><path d="M1052.8 189.32v5m0 5v9.97m0 5v9.98m0 5v9.98m0 5v9.98m0 5v9.98m0 5v9.98m0 5v9.98m0 5v9.98m0 5v9.98m0 5v9.98m0 5v10m0 4.98v10m0 4.98v10m0 4.98v10m0 4.98v10m0 4.98v10m0 4.98v10m0 5v9.97m0 5v9.98m0 5v10m0 4.98v10m0 4.98v10m0 5v9.98m0 5v9.98m0 5v9.98m0 5v9.98m0 5v9.98m0 5v9.98m0 5v9.98m0 5v10m0 4.98v10m0 4.98v10m0 4.98v5l-.08.93-.22.92-.36.87-.5.8-.6.72-.72.6-.8.5-.87.36-.92.22-.93.08h-5.24m-5.23 0h-10.47m-5.23 0h-10.47m-5.23 0h-10.47m-5.23 0h-10.47m-5.24 0h-10.46m-5.24 0h-10.46m-5.24 0h-10.46m-5.24 0h-5.23l-.95.07-.92.22-.87.35-.8.5-.7.6-.63.72-.5.8-.35.87-.22.92-.07.94v7.37m0 7.37v7.37" stroke="#3a414a" fill="none"/><path d="M1053.27 189.33h-.95v-.5h.95z" stroke="#3a414a" stroke-width=".05" fill="#3a414a"/><path d="M915.2 732.58l-4.65-14.27h9.27z" stroke="#3a414a" fill="#3a414a"/><path d="M810.6 301.97v-5.9m0-5.9v-5.9l-.07-.93-.2-.92-.38-.87-.5-.8-.6-.72-.7-.6-.82-.5-.87-.36-.9-.22-.95-.08h-4.83m-4.84 0h-9.68m-4.84 0h-9.67m-4.84 0h-9.7m-4.83 0h-9.7m-4.82 0h-9.7m-4.83 0h-9.68m-4.84 0h-9.68m-4.84 0h-9.68m-4.84 0h-4.84l-.94-.07-.9-.22-.88-.36-.8-.5-.72-.6-.6-.72-.5-.8-.37-.87-.2-.92-.08-.93v-5.6m0-5.6V249.9m0-5.6v-5.6" stroke="#3a414a" fill="none"/><path d="M810.6 316.74l-4.63-14.27h9.27z" stroke="#3a414a" fill="#3a414a"/><path d="M668.4 238.7h-.95v-.5h.95z" stroke="#3a414a" stroke-width=".05" fill="#3a414a"/><path d="M597.92 87.7a10 10 0 0 1 10-10h120a10 10 0 0 1 10 10v140a10 10 0 0 1-10 10h-120a10 10 0 0 1-10-10z" stroke="#3a414a" fill="#fff"/><use xlink:href="#m" transform="matrix(1,0,0,1,609.9205214915776,89.69490846457052) translate(6.858024691358018 73.02777777777777)"/><path d="M738.92 157.7h5.15m5.16 0h10.3m5.15 0h10.3m5.16 0h10.3m5.16 0h10.3m5.16 0h10.3m5.15 0h10.32m5.15 0h10.3m5.16 0h10.3m5.16 0h10.3m5.14 0h10.3m5.16 0h10.3m5.16 0h10.3m5.16 0h10.3m5.16 0h10.3m5.15 0h5.16" stroke="#3a414a" fill="none"/><path d="M738.93 158.17h-.5v-.95h.5z" stroke="#3a414a" stroke-width=".05" fill="#3a414a"/><path d="M985.55 157.7l-14.26 4.63v-9.27z" stroke="#3a414a" fill="#3a414a"/><path d="M885.75 808.2v4.88m0 4.9v9.77m0 4.9v9.77m0 4.9v9.76m0 4.9v9.77m0 4.9v9.77m0 4.9v4.88l-.08.93-.22.92-.36.87-.5.8-.6.72-.73.6-.8.5-.87.36-.92.22-.93.08h-5.18m-5.18 0h-10.36m-5.17 0H843.5m-5.16 0H828m-5.2 0h-10.34m-5.18 0h-5.17" stroke="#3a414a" fill="none"/><path d="M886.22 808.2h-.95v-.5h.95z" stroke="#3a414a" stroke-width=".05" fill="#3a414a"/><path d="M787.34 902.2l14.27-4.64v9.27z" stroke="#3a414a" fill="#3a414a"/><path d="M654.97 887.2a10 10 0 0 1 10-10h110.25a10 10 0 0 1 10 10v30a10 10 0 0 1-10 10H664.97a10 10 0 0 1-10-10z" stroke="#3a414a" fill="#fff"/><use xlink:href="#n" transform="matrix(1,0,0,1,666.9720817320829,889.1949084645705) translate(12.23456790123457 19.40277777777778)"/><path d="M-14.42 539.7a10 10 0 0 1 10-10h108.5a10 10 0 0 1 10 10v28.75a10 10 0 0 1-10 10H-4.4a10 10 0 0 1-10-10z" stroke="#3a414a" fill="#fff"/><use xlink:href="#o" transform="matrix(1,0,0,1,-2.41810795328567,541.6949084645705) translate(16.141975308641975 19.34027777777778)"/><path d="M49.84 512.8v-6.53m0-6.54v-6.54l.07-.94.23-.92.36-.87.48-.8.6-.72.73-.6.8-.5.88-.36.92-.23.94-.07h4.76m4.77 0h9.52m4.76 0h9.53m4.75 0h9.53m4.77 0h9.53m4.76 0h9.53m4.77 0h9.53m4.76 0h4.76l.93-.08.92-.22.87-.36.8-.5.72-.6.6-.72.5-.8.36-.87.22-.92.07-.94v-5.92m0-5.92v-11.83m0-5.92v-5.9" stroke="#3a414a" fill="none"/><path d="M49.84 527.58L45.2 513.3h9.27z" stroke="#3a414a" fill="#3a414a"/><path d="M162.37 445.7h-.95v-.5h.95z" stroke="#3a414a" stroke-width=".05" fill="#3a414a"/><path d="M85.58 370.94a10 10 0 0 1 10-10H228.2a10 10 0 0 1 10 10v63.75a10 10 0 0 1-10 10H95.6a10 10 0 0 1-10-10z" stroke="#3a414a" fill="#fff"/><use xlink:href="#k" transform="matrix(1,0,0,1,97.58189204671442,372.9449084645705) translate(-2.6604938271604937 21.111111111111114)"/><use xlink:href="#p" transform="matrix(1,0,0,1,97.58189204671442,372.9449084645705) translate(23.23456790123457 47.777777777777786)"/><path d="M-165.9 366.94a6 6 0 0 1 6-6H39.57a6 6 0 0 1 6 6v51.75a6 6 0 0 1-6 6h-199.5a6 6 0 0 1-6-6z" stroke="#3a414a" fill="#fff"/><use xlink:href="#q" transform="matrix(1,0,0,1,-153.90884869128422,372.9449084645705) translate(7.672839506172835 25.27777777777778)"/><path d="M-60.16 425.7v5.05m0 5.06v10.12m0 5.05v10.1m0 5.07v5.06l.07.93.23.92.36.87.48.8.6.72.73.6.8.5.88.36.92.22.94.07h4.66m4.67 0h9.33m4.67 0h9.33m4.67 0h9.33m4.67 0H6.5m4.67 0h9.33m4.67 0h9.33m4.67 0h4.67l.93.07.92.22.86.35.8.5.72.6.6.72.5.8.36.87.22.92.08.94v4.93m0 4.94v9.87m0 4.94v4.93" stroke="#3a414a" fill="none"/><path d="M-59.7 425.7h-.94v-.5h.95z" stroke="#3a414a" stroke-width=".05" fill="#3a414a"/><path d="M49.84 527.58L45.2 513.3h9.27z" stroke="#3a414a" fill="#3a414a"/><path d="M596.92 212.36H592m-4.94 0h-9.86m-4.94 0h-9.86m-4.93 0h-9.86m-4.92 0h-9.87m-4.92 0h-9.86m-4.93 0h-9.88m-4.93 0h-9.87m-4.93 0h-9.86m-4.93 0h-9.86m-4.93 0h-9.85m-4.93 0h-9.87m-4.93 0h-9.86m-4.93 0h-9.86m-4.93 0h-9.87m-4.93 0h-9.86m-4.93 0h-9.86m-4.95 0h-9.86m-4.94 0h-9.86m-4.93 0h-9.87m-4.93 0h-9.86m-4.92 0h-9.87m-4.92 0h-9.86m-4.93 0h-9.87m-4.94 0h-9.87m-4.93 0h-9.86m-4.93 0h-9.85m-4.94 0h-9.85m-4.93 0h-9.86m-4.94 0h-4.93l-.94.07-.92.22-.87.37-.8.5-.72.6-.6.72-.5.8-.36.87-.23.92-.08.94v5.24m0 5.24v10.47m0 5.25v10.47m0 5.24v10.48m0 5.23v10.48m0 5.24v10.46m0 5.24v10.47m0 5.24v10.5m0 5.22v5.24" stroke="#3a414a" fill="none"/><path d="M597.42 212.84h-.5v-.95h.5z" stroke="#3a414a" stroke-width=".05" fill="#3a414a"/><path d="M161.9 358.83l-4.64-14.27h9.27z" stroke="#3a414a" fill="#3a414a"/><path d="M161.9 445.7v5.06m0 5.07v10.13m0 5.07v10.14m0 5.06v10.14m0 5.07v10.13m0 5.07v10.13m0 5.07v10.14m0 5.06v10.14m0 5.07v10.13m0 5.07v10.13m0 5.07v10.14m0 5.05V618m0 5.06v10.13m0 5.06v10.13m0 5.06v10.14m0 5.06v10.14m0 5.07V694m0 5.07v10.13m0 5.07v10.13m0 5.07v10.14m0 5.07v10.14m0 5.08v5.07l.07.93.22.92.35.87.5.8.6.72.72.6.8.5.87.35.92.22.93.08h5.04m5.05 0h10.1m5.04 0h10.1m5.04 0h10.1m5.05 0h10.1m5.04 0h10.1m5.05 0h10.1m5.05 0h10.1m5.04 0h10.1m5.06 0h10.1m5.04 0h10.1m5.05 0h10.1m5.04 0h10.1m5.04 0h10.1m5.04 0h10.1m5.05 0h10.1m5.05 0h10.1m5.04 0h10.1m5.05 0h10.1m5.04 0h10.1m5.06 0h10.1m5.04 0H491m5.05 0h10.1m5.04 0h10.1m5.04 0h10.1m5.04 0h10.1m5.05 0h10.1m5.05 0h10.1m5.04 0h10.1m5.05 0h10.1m5.04 0h10.1m5.06 0h10.1m5.04 0h10.1m5.05 0h10.1m5.04 0h10.1m5.04 0h10.1m5.05 0h10.08m5.05 0h10.1m5.05 0h10.1m5.04 0h10.1m5.05 0h10.1m5.04 0h5.06" stroke="#3a414a" fill="none"/><path d="M162.37 445.7h-.95v-.5h.95z" stroke="#3a414a" stroke-width=".05" fill="#3a414a"/><path d="M803.63 770.95l-14.27 4.63v-9.27z" stroke="#3a414a" fill="#3a414a"/><path d="M705 358.86h-6.08m-6.08 0h-12.16m-6.08 0h-6.08l-.93.07-.93.22-.87.36-.8.5-.72.6-.6.73-.5.8-.36.87-.22.92-.08.94v5.77m0 5.78v11.57m0 5.77v11.56m0 5.78v5.78l-.07.94-.22.9-.36.88-.5.8-.6.72-.72.6-.8.5-.87.36-.92.22-.94.08h-6.1m-6.13 0h-12.23m-6.12 0h-6.1l-.73.05-.7.18-.68.28-.62.38-.55.47-.47.56-.38.62-.27.67-.17.7-.06.72" stroke="#3a414a" fill="none"/><path d="M705.5 359.33h-.52v-.95h.52z" stroke="#3a414a" stroke-width=".05" fill="#3a414a"/><path d="M615.22 442.24l-4.63-14.27h9.26z" stroke="#3a414a" fill="#3a414a"/><path d="M555.22 454.36a10 10 0 0 1 10-10h100a10 10 0 0 1 10 10v31.25a10 10 0 0 1-10 10h-100a10 10 0 0 1-10-10z" stroke="#3a414a" fill="#fff"/><use xlink:href="#r" transform="matrix(1,0,0,1,567.2220567320826,456.3558937666437) translate(18.617283950617285 19.52777777777778)"/><path d="M395.22 328.86a10 10 0 0 1 10-10h160a10 10 0 0 1 10 10v60a10 10 0 0 1-10 10h-160a10 10 0 0 1-10-10z" stroke="#3a414a" fill="#fff"/><use xlink:href="#s" transform="matrix(1,0,0,1,407.22205673208265,330.8558937666437) translate(-1.3518518518518619 32.44444444444444)"/><path d="M485.22 399.86v5.25m0 5.26v5.25l.08.94.22.92.36.87.5.8.6.72.7.6.82.5.87.36.9.23.95.08h4.92m4.93 0h9.84m4.93 0h9.85m4.92 0h9.84m4.93 0h9.84m4.93 0h9.85m4.92 0h9.85m4.92 0h9.84m4.93 0h4.93l.9.08.9.2.86.37.78.48.7.6.6.7.48.78.35.86.22.9.07.9" stroke="#3a414a" fill="none"/><path d="M485.7 399.87h-.95v-.5h.95z" stroke="#3a414a" stroke-width=".05" fill="#3a414a"/><path d="M615.22 442.24l-4.63-14.27h9.26z" stroke="#3a414a" fill="#3a414a"/><path d="M839.22-112.3a10 10 0 0 1 10-10h106a10 10 0 0 1 10 10v52a10 10 0 0 1-10 10h-106a10 10 0 0 1-10-10z" stroke="#3a414a" fill="#fff"/><use xlink:href="#t" transform="matrix(1,0,0,1,851.2220567320828,-110.30509153542948) translate(17.66666666666667 29.77777777777778)"/><path d="M473.73-116.3a10 10 0 0 1 10-10h150a10 10 0 0 1 10 10v60a10 10 0 0 1-10 10h-150a10 10 0 0 1-10-10z" stroke="#3a414a" fill="#fff"/><use xlink:href="#u" transform="matrix(1,0,0,1,485.725078302595,-114.30509153542948) translate(5.839506172839506 31.77777777777778)"/><path d="M644.73-86.3h4.93m4.93 0h9.86m4.93 0h9.86m4.94 0h9.86m4.94 0h9.86m4.94 0h9.86m4.94 0h9.87m4.93 0h9.87m4.93 0h9.87m4.93 0h9.87m4.93 0h9.87m4.93 0h9.87m4.93 0h4.94" stroke="#3a414a" fill="none"/><path d="M644.74-85.83h-.5v-.95h.5z" stroke="#3a414a" stroke-width=".05" fill="#3a414a"/><path d="M837.1-86.3l-14.26 4.63v-9.27z" stroke="#3a414a" fill="#3a414a"/><path d="M966.22-86.3h4.68m4.68 0h9.35m4.67 0h9.36m4.67 0h9.36m4.66 0h4.68" stroke="#3a414a" fill="none"/><path d="M966.24-85.83h-.52v-.95h.5z" stroke="#3a414a" stroke-width=".05" fill="#3a414a"/><path d="M1037.1-86.3l-14.26 4.63v-9.27z" stroke="#3a414a" fill="#3a414a"/><path d="M1039.22-116.3a10 10 0 0 1 10-10h106a10 10 0 0 1 10 10v60a10 10 0 0 1-10 10h-106a10 10 0 0 1-10-10z" stroke="#3a414a" fill="#fff"/><use xlink:href="#v" transform="matrix(1,0,0,1,1051.2220567320828,-114.30509153542948) translate(-6.345679012345684 32.44444444444444)"/><path d="M667.92 76.7v-4.76m0-4.75v-9.5m0-4.76v-9.5m0-4.74v-9.5m0-4.75V19.7l.07-.94.2-.92.37-.87.5-.8.6-.72.72-.6.8-.5.87-.36.9-.23.95-.07h4.94m4.94 0h9.88m4.94 0h9.88m4.94 0h9.88m4.94 0h9.88m4.94 0h9.88m4.94 0h9.88m4.94 0h9.88m4.94 0h9.88m4.94 0h9.88m4.94 0h9.88m4.94 0h9.88m4.94 0h9.88m4.94 0h9.88m4.94 0h9.88m4.94 0h4.94l.94-.08.92-.22.87-.36.8-.5.72-.6.6-.72.5-.8.36-.87.22-.92.07-.94V3.13m0-4.57v-9.14m0-4.57v-9.13m0-4.57v-4.57" stroke="#3a414a" fill="none"/><path d="M668.4 77.2h-.95v-.52h.95z" stroke="#3a414a" stroke-width=".05" fill="#3a414a"/><path d="M902.22-48.2l4.64 14.28h-9.27z" stroke="#3a414a" fill="#3a414a"/><path d="M693.96-32.3a6 6 0 0 1 6-6h142a6 6 0 0 1 6 6v36a6 6 0 0 1-6 6h-142a6 6 0 0 1-6-6z" stroke="#000" stroke-opacity="0" fill="#fff" fill-opacity="0"/><use xlink:href="#w" transform="matrix(1,0,0,1,698.9580052493438,-33.30509153542948) translate(3.93209876543213 14.222222222222218)"/><use xlink:href="#x" transform="matrix(1,0,0,1,698.9580052493438,-33.30509153542948) translate(62.20370370370371 14.222222222222218)"/><use xlink:href="#y" transform="matrix(1,0,0,1,698.9580052493438,-33.30509153542948) translate(0.006172839506206174 35.55555555555554)"/><use xlink:href="#z" transform="matrix(1,0,0,1,698.9580052493438,-33.30509153542948) translate(17.734567901234595 35.55555555555554)"/><use xlink:href="#A" transform="matrix(1,0,0,1,698.9580052493438,-33.30509153542948) translate(42.42592592592594 35.55555555555554)"/><use xlink:href="#B" transform="matrix(1,0,0,1,698.9580052493438,-33.30509153542948) translate(71.0679012345679 35.55555555555554)"/><use xlink:href="#C" transform="matrix(1,0,0,1,698.9580052493438,-33.30509153542948) translate(111.46296296296293 35.55555555555554)"/><path d="M558.73-45.3v4.58m0 4.58v9.17m0 4.58v9.18m0 4.58V.53m0 4.58v4.6l.07.93.22.92.36.87.5.8.6.72.72.6.8.5.87.36.92.22.93.08h5.4m5.4 0h10.8m5.4 0h10.8m5.4 0h10.8m5.4 0h10.8m5.4 0h10.8m5.4 0h5.4l.93.07.9.22.88.35.8.5.72.6.62.72.5.8.35.87.22.92.07.93v4.34m0 4.35v8.68m0 4.35v8.7m0 4.34v4.34" stroke="#3a414a" fill="none"/><path d="M559.2-45.3h-.95v-.5h.95z" stroke="#3a414a" stroke-width=".05" fill="#3a414a"/><path d="M667.92 75.58L663.3 61.3h9.26z" stroke="#3a414a" fill="#3a414a"/><path d="M824.47-272.3a10 10 0 0 1 10-10h135.5a10 10 0 0 1 10 10v40a10 10 0 0 1-10 10h-135.5a10 10 0 0 1-10-10z" stroke="#3a414a" fill="#fff"/><use xlink:href="#D" transform="matrix(1,0,0,1,836.4720567320828,-270.3050915354295) translate(9.302469135802461 22.27777777777778)"/><path d="M902.22-221.3v5.47m0 5.47v10.95m0 5.47v10.95m0 5.47v10.94m0 5.47v10.96m0 5.48v5.47" stroke="#3a414a" fill="none"/><path d="M902.7-221.3h-.95v-.5h.95z" stroke="#3a414a" stroke-width=".05" fill="#3a414a"/><path d="M902.22-124.42l-4.63-14.27h9.26z" stroke="#3a414a" fill="#3a414a"/><path d="M473.73-277.3a10 10 0 0 1 10-10h160a10 10 0 0 1 10 10v50a10 10 0 0 1-10 10h-160a10 10 0 0 1-10-10z" stroke="#3a414a" fill="#fff"/><use xlink:href="#E" transform="matrix(1,0,0,1,485.72507830259514,-275.3050915354295) translate(10.839506172839506 26.40277777777778)"/><path d="M823.47-252.3h-5.1m-5.1 0H803.1m-5.1 0h-10.2m-5.1 0h-10.18m-5.1 0h-10.2m-5.08 0h-10.2m-5.1 0h-10.18m-5.1 0h-10.2m-5.08 0h-10.2m-5.1 0H680.8m-5.1 0h-5.1" stroke="#3a414a" fill="none"/><path d="M823.97-251.83h-.5v-.95h.5z" stroke="#3a414a" stroke-width=".05" fill="#3a414a"/><path d="M655.84-252.3l14.27-4.64v9.27z" stroke="#3a414a" fill="#3a414a"/><path d="M627.67 76.7v-5.6m0-5.57V54.36m0-5.58v-5.6l-.07-.92-.22-.92-.36-.87-.5-.8-.6-.72-.72-.6-.8-.5-.88-.36-.9-.23-.95-.08h-4.88m-4.88 0h-9.76m-4.88 0h-9.75m-4.88 0h-9.76m-4.88 0h-9.76m-4.88 0h-9.75m-4.88 0H529m-4.88 0h-9.76m-4.88 0h-9.75m-4.88 0h-9.75m-4.88 0h-9.76m-4.87 0h-9.77m-4.88 0h-9.75m-4.88 0h-9.75m-4.88 0h-9.77m-4.88 0h-9.75m-4.88 0h-9.75m-4.88 0h-9.77m-4.87 0h-9.76m-4.88 0h-9.75m-4.88 0H329l-.93-.08-.9-.22-.88-.36-.8-.5-.73-.6-.6-.72-.5-.8-.36-.87-.2-.92-.1-.94v-4.87m0-4.87v-9.74m0-4.87v-9.73m0-4.87v-9.74m0-4.86v-9.73m0-4.86v-9.74m0-4.87v-9.73m0-4.87v-9.74m0-4.88v-9.74m0-4.86v-9.74m0-4.87v-9.73m0-4.86v-9.73m0-4.87v-9.74m0-4.87v-9.74m0-4.87v-9.75m0-4.87v-9.73m0-4.87v-9.74m0-4.87v-9.73m0-4.87v-9.74m0-4.87v-4.87l.1-.94.2-.92.37-.87.5-.8.6-.72.72-.6.8-.5.86-.36.9-.23.95-.08h4.75m4.73 0h9.47m4.73 0h9.47m4.74 0h9.46m4.73 0h9.46m4.73 0h9.46m4.74 0h9.47m4.73 0h9.47m4.73 0h9.47m4.74 0h4.74" stroke="#3a414a" fill="none"/><path d="M628.14 77.2h-.94v-.52h.94z" stroke="#3a414a" stroke-width=".05" fill="#3a414a"/><path d="M471.6-252.3l-14.26 4.63v-9.27z" stroke="#3a414a" fill="#3a414a"/><path d="M355.22-32.3a6 6 0 0 1 6-6h166.74a6 6 0 0 1 6 6v84.66a6 6 0 0 1-6 6H361.22a6 6 0 0 1-6-6z" stroke="#000" stroke-opacity="0" fill="#fff" fill-opacity="0"/><use xlink:href="#F" transform="matrix(1,0,0,1,360.22205673208276,-33.30509153542948) translate(6.104938271604965 35.972222222222214)"/><use xlink:href="#G" transform="matrix(1,0,0,1,360.22205673208276,-33.30509153542948) translate(46.549382716049394 35.972222222222214)"/><use xlink:href="#H" transform="matrix(1,0,0,1,360.22205673208276,-33.30509153542948) translate(15.413580246913611 57.30555555555554)"/><use xlink:href="#I" transform="matrix(1,0,0,1,360.22205673208276,-33.30509153542948) translate(92.4506172839506 57.30555555555554)"/><use xlink:href="#J" transform="matrix(1,0,0,1,360.22205673208276,-33.30509153542948) translate(116.1543209876543 57.30555555555554)"/><path d="M-161.37-240.3a10 10 0 0 1 10-10h140a10 10 0 0 1 10 10v78.72a10 10 0 0 1-10 10h-140a10 10 0 0 1-10-10z" stroke="#3a414a" fill="#fff"/><use xlink:href="#K" transform="matrix(1,0,0,1,-149.3712023437812,-238.30509153542948) translate(7.012345679012334 41.21527777777778)"/><path d="M15.5-200.94h5.1m5.1 0h10.17m5.08 0h10.18m5.1 0H66.4m5.08 0h10.18m5.1 0h10.17m5.08 0h10.2m5.08 0h10.18m5.08 0h10.18m5.1 0h10.17m5.07 0h10.18m5.1 0h10.16m5.1 0h10.18m5.1 0h10.16m5.1 0h5.08l.94.07.92.22.87.36.8.5.72.6.6.73.5.8.36.87.22.92.07.94v4.93m0 4.92v9.87m0 4.92v9.87m0 4.92v9.86m0 4.94v9.86m0 4.94v9.86m0 4.93v9.88m0 4.93v9.88m0 4.93v9.88m0 4.93v9.88m0 4.93V-42m0 4.93v9.87m0 4.94v9.87m0 4.93v9.87m0 4.93v9.87m0 4.93v9.87m0 4.93v9.87m0 4.93v9.86m0 4.94v9.86m0 4.94v9.86m0 4.94v4.93l.08.94.22.9.36.88.5.8.6.72.72.6.8.5.87.36.9.22.95.08h4.94m4.94 0h9.88m4.94 0h9.88m4.94 0h9.88m4.94 0h9.88m4.95 0h9.87m4.94 0h9.9m4.93 0h9.88m4.95 0h9.88m4.94 0h9.88m4.94 0h9.87m4.94 0h9.9m4.93 0H424m4.95 0h9.88m4.94 0h9.88m4.94 0h9.87m4.94 0h9.9m4.94 0h9.88m4.94 0h9.88m4.94 0h9.88m4.94 0h9.88m4.94 0h9.88m4.94 0h9.88m4.94 0h9.88m4.94 0h4.94" stroke="#3a414a" fill="none"/><path d="M.75-200.94L15-205.58v9.27z" stroke="#3a414a" fill="#3a414a"/><path d="M597.42 107.5h-.5v-.95h.5z" stroke="#3a414a" stroke-width=".05" fill="#3a414a"/><path d="M-81.37-134.7v11.7m0 3.94v7.87m0 3.95v3.94" stroke="#3a414a" fill="none"/><path d="M-81.37-149.47l4.63 14.27H-86z" stroke="#3a414a" fill="#3a414a"/><path d="M-80.9-102.8h-.95v-.52h.95z" stroke="#3a414a" stroke-width=".05" fill="#3a414a"/><path d="M-161.37-92.3a10 10 0 0 1 10-10h140a10 10 0 0 1 10 10v40a10 10 0 0 1-10 10h-140a10 10 0 0 1-10-10z" stroke="#3a414a" fill="#fff"/><use xlink:href="#L" transform="matrix(1,0,0,1,-149.3712023437812,-90.30509153542948) translate(15.592592592592595 22.27777777777778)"/><path d="M15.5-72.3h5.2m5.2 0h10.4m5.2 0h10.4m5.2 0h10.4m5.2 0h10.4m5.2 0h10.4m5.2 0h10.4m5.2 0h10.4m5.2 0h10.4m5.2 0h5.2l.93.07.92.22.87.35.8.5.72.6.6.72.5.8.36.87.22.92.07.93v5.17m0 5.18v10.36m0 5.2v10.35m0 5.18v10.36m0 5.17V1.03m0 5.18v10.37m0 5.18V32.1m0 5.18v10.36m0 5.18v10.36m0 5.18v10.36m0 5.18v10.36m0 5.18v10.36m0 5.18v10.36m0 5.17v5.2l.07.93.22.92.35.87.5.8.6.72.72.6.8.5.87.36.92.22.93.07h4.92m4.94 0h9.86m4.93 0h9.86m4.94 0h9.87m4.94 0H232m4.93 0h9.86m4.93 0h9.86m4.92 0h9.86m4.94 0h9.86m4.93 0h9.87m4.93 0h9.87m4.93 0h9.86m4.93 0h9.85m4.94 0h9.85m4.93 0h9.86m4.93 0h9.87m4.93 0h9.86m4.93 0h9.86m4.94 0h9.86m4.93 0h9.86m4.94 0h9.87m4.94 0h9.86m4.93 0h9.86m4.93 0h9.86m4.92 0h9.86m4.93 0h9.88m4.93 0h9.87m4.93 0h9.86m4.94 0h9.86m4.93 0h4.92" stroke="#3a414a" fill="none"/><path d="M.75-72.3L15-76.95v9.27z" stroke="#3a414a" fill="#3a414a"/><path d="M597.42 142.17h-.5v-.95h.5z" stroke="#3a414a" stroke-width=".05" fill="#3a414a"/><path d="M-197.12 81.7a10 10 0 0 1 10-10h180a10 10 0 0 1 10 10V114a10 10 0 0 1-10 10h-180a10 10 0 0 1-10-10z" stroke="#3a414a" fill="#fff"/><use xlink:href="#M" transform="matrix(1,0,0,1,-185.11657271278045,83.69490846457052) translate(11.148148148148138 19.59027777777778)"/><path d="M596.92 175.03h-4.96m-4.96 0h-9.9m-4.97 0h-9.9m-4.97 0h-9.92m-4.96 0h-9.9m-4.97 0h-9.9m-4.96 0h-9.92m-4.96 0h-9.9m-4.97 0h-9.92m-4.96 0h-9.92m-4.96 0h-9.9m-4.97 0h-9.92m-4.95 0h-9.92m-4.96 0h-9.9m-4.97 0h-9.92m-4.95 0h-9.92m-4.96 0H354m-4.97 0h-9.92m-4.94 0h-9.92m-4.96 0h-9.9m-4.97 0h-9.9m-4.96 0h-9.92m-4.96 0h-9.9m-4.97 0h-9.93m-4.96 0H235m-4.96 0h-9.9m-4.97 0h-9.92m-4.96 0h-9.92m-4.96 0h-9.9m-4.97 0h-9.92m-4.96 0h-9.9m-4.97 0h-9.92m-4.95 0H116m-4.95 0h-9.9m-4.97 0h-4.96l-.94-.08-.9-.2-.88-.38-.8-.5-.72-.6-.6-.72-.5-.8-.36-.87-.22-.9-.08-.95v-5.43m0-5.43V147.3m0-5.43V131m0-5.42v-10.86m0-5.43v-5.44l-.07-.94-.22-.92-.36-.87-.5-.8-.6-.72-.72-.6-.8-.5-.87-.35-.92-.22-.94-.07h-4.95m-4.96 0h-9.9m-4.95 0h-9.9m-4.96 0h-9.92m-4.96 0h-4.95" stroke="#3a414a" fill="none"/><path d="M597.42 175.5h-.5v-.95h.5z" stroke="#3a414a" stroke-width=".05" fill="#3a414a"/><path d="M5 97.86l14.27-4.64v9.27z" stroke="#3a414a" fill="#3a414a"/><path d="M-177.12 35.7a6 6 0 0 1 6-6h128a6 6 0 0 1 6 6v30a6 6 0 0 1-6 6h-128a6 6 0 0 1-6-6z" stroke="#000" stroke-opacity="0" fill="#fff" fill-opacity="0"/><g><use xlink:href="#N" transform="matrix(1,0,0,1,-172.11657271278045,34.69490846457052) translate(13.685185185185205 12.666666666666664)"/><use xlink:href="#O" transform="matrix(1,0,0,1,-172.11657271278045,34.69490846457052) translate(55.12962962962963 12.666666666666664)"/><use xlink:href="#P" transform="matrix(1,0,0,1,-172.11657271278045,34.69490846457052) translate(94.09259259259258 12.666666666666664)"/><use xlink:href="#Q" transform="matrix(1,0,0,1,-172.11657271278045,34.69490846457052) translate(29.222222222222243 28.66666666666666)"/><use xlink:href="#R" transform="matrix(1,0,0,1,-172.11657271278045,34.69490846457052) translate(65.51851851851852 28.66666666666666)"/></g><path d="M558.73-127.3v-5.6m0-5.57v-11.17m0-5.58v-5.6l.07-.92.22-.92.36-.87.5-.8.6-.72.72-.6.8-.5.87-.36.92-.23.93-.08h5.06m5.05 0h10.12m5.06 0h10.13m5.06 0h10.12m5.07 0h10.13m5.06 0h10.12m5.06 0h10.12m5.06 0h10.13m5.05 0h10.12m5.06 0h10.13m5.06 0h10.12m5.07 0h10.13m5.06 0H752m5.08 0h10.12m5.06 0h10.13m5.05 0h10.12m5.06 0h10.13m5.06 0h10.12m5.06 0h10.13m5.06 0h10.1m5.08 0h10.12m5.06 0h10.13m5.05 0h10.12m5.06 0h10.13m5.06 0h10.12m5.06 0h10.13m5.06 0h10.1m5.07 0h10.13m5.06 0H995m5.05 0h10.12m5.06 0h10.13m5.06 0h10.12m5.06 0h10.13m5.06 0h10.1m5.07 0h10.13m5.06 0h5.06l.94.07.92.22.87.35.8.5.7.6.63.72.5.8.35.87.22.92.07.94v5.87m0 5.87v5.87" stroke="#3a414a" fill="none"/><path d="M559.2-126.8h-.95v-.52h.95z" stroke="#3a414a" stroke-width=".05" fill="#3a414a"/><path d="M1102.22-128.42l-4.63-14.27h9.26z" stroke="#3a414a" fill="#3a414a"/><path d="M395.22 553.86a10 10 0 0 1 10-10h195.8a10 10 0 0 1 10 10v52.5a10 10 0 0 1-10 10h-195.8a10 10 0 0 1-10-10z" stroke="#3a414a" fill="#fff"/><g><use xlink:href="#S" transform="matrix(1,0,0,1,407.22205673208265,555.8558937666437) translate(5.567901234567898 30.02777777777778)"/></g><path d="M503.12 542.86v-5.7m0-5.72v-5.7l.08-.95.22-.92.36-.87.5-.8.6-.7.72-.62.8-.5.87-.36.92-.22.92-.07h4.77m4.76 0h9.53m4.76 0h9.53m4.76 0h9.53m4.76 0h9.53m4.76 0h9.53m4.76 0h9.53m4.75 0h4.77l.94-.07.92-.22.87-.36.8-.5.72-.6.6-.72.5-.8.36-.88.22-.9.07-.95v-1.24" stroke="#3a414a" fill="none"/><path d="M503.6 543.36h-.95v-.52h.95z" stroke="#3a414a" stroke-width=".05" fill="#3a414a"/><path d="M615.22 497.72l4.64 14.27h-9.27z" stroke="#3a414a" fill="#3a414a"/><path d="M-174.42 644.7a10 10 0 0 1 10-10h195.8a10 10 0 0 1 10 10v52.5a10 10 0 0 1-10 10h-195.8a10 10 0 0 1-10-10z" stroke="#3a414a" fill="#fff"/><g><use xlink:href="#T" transform="matrix(1,0,0,1,-162.4181079532857,646.6949084645705) translate(-1.4074074074074048 28.944444444444443)"/></g><path d="M-66.52 633.7v-7.05m0-7.04v-7.03l.08-.94.22-.9.36-.88.5-.8.6-.72.72-.6.8-.5.87-.37.92-.22.93-.07h4.97m4.97 0h9.94m4.97 0h9.94m4.97 0h9.94m4.96 0h9.94m4.97 0H19m4.96 0h9.94m4.97 0h4.97l.93-.07.92-.22.86-.36.8-.5.72-.6.6-.72.5-.8.36-.88.22-.9.08-.95v-5.24" stroke="#3a414a" fill="none"/><path d="M-66.04 634.2H-67v-.52h.96z" stroke="#3a414a" stroke-width=".05" fill="#3a414a"/><path d="M49.84 580.56l4.63 14.27H45.2z" stroke="#3a414a" fill="#3a414a"/><defs><path fill="#e81313" d="M127-220V0H93v-220H8v-28h204v28h-85" id="U"/><path fill="#e81313" d="M100-194c63 0 86 42 84 106H49c0 40 14 67 53 68 26 1 43-12 49-29l28 8c-11 28-37 45-77 45C44 4 14-33 15-96c1-61 26-98 85-98zm52 81c6-60-76-77-97-28-3 7-6 17-6 28h103" id="V"/><path fill="#e81313" d="M141 0L90-78 38 0H4l68-98-65-92h35l48 74 47-74h35l-64 92 68 98h-35" id="W"/><path fill="#e81313" d="M59-47c-2 24 18 29 38 22v24C64 9 27 4 27-40v-127H5v-23h24l9-43h21v43h35v23H59v120" id="X"/><path fill="#e81313" d="M84 4C-5 8 30-112 23-190h32v120c0 31 7 50 39 49 72-2 45-101 50-169h31l1 190h-30c-1-10 1-25-2-33-11 22-28 36-60 37" id="Y"/><path fill="#e81313" d="M114-163C36-179 61-72 57 0H25l-1-190h30c1 12-1 29 2 39 6-27 23-49 58-41v29" id="Z"/><path fill="#e81313" d="M185-189c-5-48-123-54-124 2 14 75 158 14 163 119 3 78-121 87-175 55-17-10-28-26-33-46l33-7c5 56 141 63 141-1 0-78-155-14-162-118-5-82 145-84 179-34 5 7 8 16 11 25" id="aa"/><g id="a"><use transform="matrix(0.06172839506172839,0,0,0.06172839506172839,0,0)" xlink:href="#U"/><use transform="matrix(0.06172839506172839,0,0,0.06172839506172839,11.049382716049381,0)" xlink:href="#V"/><use transform="matrix(0.06172839506172839,0,0,0.06172839506172839,23.39506172839506,0)" xlink:href="#W"/><use transform="matrix(0.06172839506172839,0,0,0.06172839506172839,34.50617283950617,0)" xlink:href="#X"/><use transform="matrix(0.06172839506172839,0,0,0.06172839506172839,40.67901234567901,0)" xlink:href="#Y"/><use transform="matrix(0.06172839506172839,0,0,0.06172839506172839,53.02469135802469,0)" xlink:href="#Z"/><use transform="matrix(0.06172839506172839,0,0,0.06172839506172839,60.37037037037037,0)" xlink:href="#V"/><use transform="matrix(0.06172839506172839,0,0,0.06172839506172839,72.71604938271605,0)" xlink:href="#aa"/><use transform="matrix(0.06172839506172839,0,0,0.06172839506172839,87.53086419753086,0)" xlink:href="#V"/><use transform="matrix(0.06172839506172839,0,0,0.06172839506172839,99.87654320987654,0)" xlink:href="#X"/></g><path fill="#e81313" d="M232-93c-1 65-40 97-104 97C67 4 28-28 28-90v-158h33c8 89-33 224 67 224 102 0 64-133 71-224h33v155" id="ab"/><path fill="#e81313" d="M117-194c89-4 53 116 60 194h-32v-121c0-31-8-49-39-48C34-167 62-67 57 0H25l-1-190h30c1 10-1 24 2 32 11-22 29-35 61-36" id="ac"/><path fill="#e81313" d="M24-231v-30h32v30H24zM24 0v-190h32V0H24" id="ad"/><path fill="#e81313" d="M101-234c-31-9-42 10-38 44h38v23H63V0H32v-167H5v-23h27c-7-52 17-82 69-68v24" id="ae"/><path fill="#e81313" d="M100-194c62-1 85 37 85 99 1 63-27 99-86 99S16-35 15-95c0-66 28-99 85-99zM99-20c44 1 53-31 53-75 0-43-8-75-51-75s-53 32-53 75 10 74 51 75" id="af"/><path fill="#e81313" d="M210-169c-67 3-38 105-44 169h-31v-121c0-29-5-50-35-48C34-165 62-65 56 0H25l-1-190h30c1 10-1 24 2 32 10-44 99-50 107 0 11-21 27-35 58-36 85-2 47 119 55 194h-31v-121c0-29-5-49-35-48" id="ag"/><g id="b"><use transform="matrix(0.06234567901234567,0,0,0.06234567901234567,0,0)" xlink:href="#ab"/><use transform="matrix(0.06234567901234567,0,0,0.06234567901234567,16.147530864197527,0)" xlink:href="#ac"/><use transform="matrix(0.06234567901234567,0,0,0.06234567901234567,28.61666666666666,0)" xlink:href="#ad"/><use transform="matrix(0.06234567901234567,0,0,0.06234567901234567,33.541975308641966,0)" xlink:href="#ae"/><use transform="matrix(0.06234567901234567,0,0,0.06234567901234567,39.776543209876536,0)" xlink:href="#af"/><use transform="matrix(0.06234567901234567,0,0,0.06234567901234567,52.24567901234567,0)" xlink:href="#Z"/><use transform="matrix(0.06234567901234567,0,0,0.06234567901234567,59.664814814814804,0)" xlink:href="#ag"/><use transform="matrix(0.06234567901234567,0,0,0.06234567901234567,78.30617283950616,0)" xlink:href="#aa"/><use transform="matrix(0.06234567901234567,0,0,0.06234567901234567,93.26913580246912,0)" xlink:href="#V"/><use transform="matrix(0.06234567901234567,0,0,0.06234567901234567,105.73827160493826,0)" xlink:href="#X"/></g><path fill="#e81313" d="M177-190C167-65 218 103 67 71c-23-6-38-20-44-43l32-5c15 47 100 32 89-28v-30C133-14 115 1 83 1 29 1 15-40 15-95c0-56 16-97 71-98 29-1 48 16 59 35 1-10 0-23 2-32h30zM94-22c36 0 50-32 50-73 0-42-14-75-50-75-39 0-46 34-46 75s6 73 46 73" id="ah"/><path fill="#e81313" d="M141-36C126-15 110 5 73 4 37 3 15-17 15-53c-1-64 63-63 125-63 3-35-9-54-41-54-24 1-41 7-42 31l-33-3c5-37 33-52 76-52 45 0 72 20 72 64v82c-1 20 7 32 28 27v20c-31 9-61-2-59-35zM48-53c0 20 12 33 32 33 41-3 63-29 60-74-43 2-92-5-92 41" id="ai"/><g id="c"><use transform="matrix(0.06172839506172839,0,0,0.06172839506172839,0,0)" xlink:href="#aa"/><use transform="matrix(0.06172839506172839,0,0,0.06172839506172839,14.814814814814813,0)" xlink:href="#ad"/><use transform="matrix(0.06172839506172839,0,0,0.06172839506172839,19.691358024691354,0)" xlink:href="#ah"/><use transform="matrix(0.06172839506172839,0,0,0.06172839506172839,32.03703703703703,0)" xlink:href="#ac"/><use transform="matrix(0.06172839506172839,0,0,0.06172839506172839,44.38271604938271,0)" xlink:href="#ai"/><use transform="matrix(0.06172839506172839,0,0,0.06172839506172839,56.728395061728385,0)" xlink:href="#X"/><use transform="matrix(0.06172839506172839,0,0,0.06172839506172839,62.90123456790123,0)" xlink:href="#Y"/><use transform="matrix(0.06172839506172839,0,0,0.06172839506172839,75.24691358024691,0)" xlink:href="#Z"/><use transform="matrix(0.06172839506172839,0,0,0.06172839506172839,82.5925925925926,0)" xlink:href="#V"/></g><path fill="#3a414a" d="M136-208V0H84v-208H4v-40h212v40h-80" id="aj"/><path fill="#3a414a" d="M114-157C55-157 80-60 75 0H25v-261h50l-1 109c12-26 28-41 61-42 86-1 58 113 63 194h-50c-7-57 23-157-34-157" id="ak"/><path fill="#3a414a" d="M185-48c-13 30-37 53-82 52C43 2 14-33 14-96s30-98 90-98c62 0 83 45 84 108H66c0 31 8 55 39 56 18 0 30-7 34-22zm-45-69c5-46-57-63-70-21-2 6-4 13-4 21h74" id="al"/><g id="d"><use transform="matrix(0.0987654320987654,0,0,0.0987654320987654,0,0)" xlink:href="#aj"/><use transform="matrix(0.0987654320987654,0,0,0.0987654320987654,21.629629629629623,0)" xlink:href="#ak"/><use transform="matrix(0.0987654320987654,0,0,0.0987654320987654,43.259259259259245,0)" xlink:href="#al"/></g><path fill="#3a414a" d="M76-208v77h127v40H76V0H24v-248h183v40H76" id="am"/><path fill="#3a414a" d="M110-194c64 0 96 36 96 99 0 64-35 99-97 99-61 0-95-36-95-99 0-62 34-99 96-99zm-1 164c35 0 45-28 45-65 0-40-10-65-43-65-34 0-45 26-45 65 0 36 10 65 43 65" id="an"/><path fill="#3a414a" d="M135-150c-39-12-60 13-60 57V0H25l-1-190h47c2 13-1 29 3 40 6-28 27-53 61-41v41" id="ao"/><path fill="#3a414a" d="M195-6C206 82 75 100 31 46c-4-6-6-13-8-21l49-6c3 16 16 24 34 25 40 0 42-37 40-79-11 22-30 35-61 35-53 0-70-43-70-97 0-56 18-96 73-97 30 0 46 14 59 34l2-30h47zm-90-29c32 0 41-27 41-63 0-35-9-62-40-62-32 0-39 29-40 63 0 36 9 62 39 62" id="ap"/><g id="e"><use transform="matrix(0.0987654320987654,0,0,0.0987654320987654,0,0)" xlink:href="#am"/><use transform="matrix(0.0987654320987654,0,0,0.0987654320987654,21.629629629629623,0)" xlink:href="#an"/><use transform="matrix(0.0987654320987654,0,0,0.0987654320987654,43.259259259259245,0)" xlink:href="#ao"/><use transform="matrix(0.0987654320987654,0,0,0.0987654320987654,57.0864197530864,0)" xlink:href="#ap"/><use transform="matrix(0.0987654320987654,0,0,0.0987654320987654,78.71604938271602,0)" xlink:href="#al"/></g><path fill="#3a414a" d="M67-125c0 53 21 87 73 88 37 1 54-22 65-47l45 17C233-25 199 4 140 4 58 4 20-42 15-125 8-235 124-281 211-232c18 10 29 29 36 50l-46 12c-8-25-30-41-62-41-52 0-71 34-72 86" id="aq"/><path fill="#3a414a" d="M135-194c87-1 58 113 63 194h-50c-7-57 23-157-34-157-59 0-34 97-39 157H25l-1-190h47c2 12-1 28 3 38 12-26 28-41 61-42" id="ar"/><path fill="#3a414a" d="M190-63c-7 42-38 67-86 67-59 0-84-38-90-98-12-110 154-137 174-36l-49 2c-2-19-15-32-35-32-30 0-35 28-38 64-6 74 65 87 74 30" id="as"/><path fill="#3a414a" d="M135-194c53 0 70 44 70 98 0 56-19 98-73 100-31 1-45-17-59-34 3 33 2 69 2 105H25l-1-265h48c2 10 0 23 3 31 11-24 29-35 60-35zM114-30c33 0 39-31 40-66 0-38-9-64-40-64-56 0-55 130 0 130" id="at"/><path fill="#3a414a" d="M115-3C79 11 28 4 28-45v-112H4v-33h27l15-45h31v45h36v33H77v99c-1 23 16 31 38 25v30" id="au"/><path fill="#3a414a" d="M85 4C-2 5 27-109 22-190h50c7 57-23 150 33 157 60-5 35-97 40-157h50l1 190h-47c-2-12 1-28-3-38-12 25-28 42-61 42" id="av"/><path fill="#3a414a" d="M133-34C117-15 103 5 69 4 32 3 11-16 11-54c-1-60 55-63 116-61 1-26-3-47-28-47-18 1-26 9-28 27l-52-2c7-38 36-58 82-57s74 22 75 68l1 82c-1 14 12 18 25 15v27c-30 8-71 5-69-32zm-48 3c29 0 43-24 42-57-32 0-66-3-65 30 0 17 8 27 23 27" id="aw"/><path fill="#3a414a" d="M25 0v-261h50V0H25" id="ax"/><g id="f"><use transform="matrix(0.0987654320987654,0,0,0.0987654320987654,0,0)" xlink:href="#aq"/><use transform="matrix(0.0987654320987654,0,0,0.0987654320987654,25.58024691358024,0)" xlink:href="#an"/><use transform="matrix(0.0987654320987654,0,0,0.0987654320987654,47.20987654320986,0)" xlink:href="#ar"/><use transform="matrix(0.0987654320987654,0,0,0.0987654320987654,68.83950617283948,0)" xlink:href="#as"/><use transform="matrix(0.0987654320987654,0,0,0.0987654320987654,88.59259259259255,0)" xlink:href="#al"/><use transform="matrix(0.0987654320987654,0,0,0.0987654320987654,108.34567901234561,0)" xlink:href="#at"/><use transform="matrix(0.0987654320987654,0,0,0.0987654320987654,129.97530864197526,0)" xlink:href="#au"/><use transform="matrix(0.0987654320987654,0,0,0.0987654320987654,141.72839506172835,0)" xlink:href="#av"/><use transform="matrix(0.0987654320987654,0,0,0.0987654320987654,163.35802469135797,0)" xlink:href="#aw"/><use transform="matrix(0.0987654320987654,0,0,0.0987654320987654,183.11111111111106,0)" xlink:href="#ax"/></g><path fill="#3a414a" d="M230 0l2-204L168 0h-37L68-204 70 0H24v-248h70l56 185 57-185h69V0h-46" id="ay"/><g id="g"><use transform="matrix(0.0987654320987654,0,0,0.0987654320987654,0,0)" xlink:href="#ay"/><use transform="matrix(0.0987654320987654,0,0,0.0987654320987654,29.530864197530853,0)" xlink:href="#aw"/><use transform="matrix(0.0987654320987654,0,0,0.0987654320987654,49.283950617283935,0)" xlink:href="#at"/></g><path fill="#3a414a" d="M115-194c55 1 70 41 70 98S169 2 115 4C84 4 66-9 55-30l1 105H24l-1-265h31l2 30c10-21 28-34 59-34zm-8 174c40 0 45-34 45-75s-6-73-45-74c-42 0-51 32-51 76 0 43 10 73 51 73" id="az"/><path fill="#3a414a" d="M24-231v-30h32v30H24zM24 0v-190h32V0H24" id="aA"/><path fill="#3a414a" d="M100-194c63 0 86 42 84 106H49c0 40 14 67 53 68 26 1 43-12 49-29l28 8c-11 28-37 45-77 45C44 4 14-33 15-96c1-61 26-98 85-98zm52 81c6-60-76-77-97-28-3 7-6 17-6 28h103" id="aB"/><path fill="#3a414a" d="M24 0v-261h32V0H24" id="aC"/><path fill="#3a414a" d="M117-194c89-4 53 116 60 194h-32v-121c0-31-8-49-39-48C34-167 62-67 57 0H25l-1-190h30c1 10-1 24 2 32 11-22 29-35 61-36" id="aD"/><g id="h"><use transform="matrix(0.06172839506172839,0,0,0.06172839506172839,0,0)" xlink:href="#az"/><use transform="matrix(0.06172839506172839,0,0,0.06172839506172839,12.345679012345679,0)" xlink:href="#aA"/><use transform="matrix(0.06172839506172839,0,0,0.06172839506172839,17.22222222222222,0)" xlink:href="#az"/><use transform="matrix(0.06172839506172839,0,0,0.06172839506172839,29.5679012345679,0)" xlink:href="#aB"/><use transform="matrix(0.06172839506172839,0,0,0.06172839506172839,41.913580246913575,0)" xlink:href="#aC"/><use transform="matrix(0.06172839506172839,0,0,0.06172839506172839,46.79012345679012,0)" xlink:href="#aA"/><use transform="matrix(0.06172839506172839,0,0,0.06172839506172839,51.666666666666664,0)" xlink:href="#aD"/><use transform="matrix(0.06172839506172839,0,0,0.06172839506172839,64.01234567901234,0)" xlink:href="#aB"/></g><path fill="#3a414a" d="M185-189c-5-48-123-54-124 2 14 75 158 14 163 119 3 78-121 87-175 55-17-10-28-26-33-46l33-7c5 56 141 63 141-1 0-78-155-14-162-118-5-82 145-84 179-34 5 7 8 16 11 25" id="aE"/><path fill="#3a414a" d="M106-169C34-169 62-67 57 0H25v-261h32l-1 103c12-21 28-36 61-36 89 0 53 116 60 194h-32v-121c2-32-8-49-39-48" id="aF"/><path fill="#3a414a" d="M141-36C126-15 110 5 73 4 37 3 15-17 15-53c-1-64 63-63 125-63 3-35-9-54-41-54-24 1-41 7-42 31l-33-3c5-37 33-52 76-52 45 0 72 20 72 64v82c-1 20 7 32 28 27v20c-31 9-61-2-59-35zM48-53c0 20 12 33 32 33 41-3 63-29 60-74-43 2-92-5-92 41" id="aG"/><path fill="#3a414a" d="M85-194c31 0 48 13 60 33l-1-100h32l1 261h-30c-2-10 0-23-3-31C134-8 116 4 85 4 32 4 16-35 15-94c0-66 23-100 70-100zm9 24c-40 0-46 34-46 75 0 40 6 74 45 74 42 0 51-32 51-76 0-42-9-74-50-73" id="aH"/><path fill="#3a414a" d="M114-163C36-179 61-72 57 0H25l-1-190h30c1 12-1 29 2 39 6-27 23-49 58-41v29" id="aI"/><g id="i"><use transform="matrix(0.06172839506172839,0,0,0.06172839506172839,0,0)" xlink:href="#aE"/><use transform="matrix(0.06172839506172839,0,0,0.06172839506172839,14.814814814814813,0)" xlink:href="#aF"/><use transform="matrix(0.06172839506172839,0,0,0.06172839506172839,27.160493827160494,0)" xlink:href="#aG"/><use transform="matrix(0.06172839506172839,0,0,0.06172839506172839,39.50617283950617,0)" xlink:href="#aH"/><use transform="matrix(0.06172839506172839,0,0,0.06172839506172839,51.85185185185185,0)" xlink:href="#aB"/><use transform="matrix(0.06172839506172839,0,0,0.06172839506172839,64.19753086419753,0)" xlink:href="#aI"/></g><path fill="#3a414a" d="M233-177c-1 41-23 64-60 70L243 0h-38l-65-103H63V0H30v-248c88 3 205-21 203 71zM63-129c60-2 137 13 137-47 0-61-80-42-137-45v92" id="aJ"/><path fill="#3a414a" d="M100-194c62-1 85 37 85 99 1 63-27 99-86 99S16-35 15-95c0-66 28-99 85-99zM99-20c44 1 53-31 53-75 0-43-8-75-51-75s-53 32-53 75 10 74 51 75" id="aK"/><path fill="#3a414a" d="M59-47c-2 24 18 29 38 22v24C64 9 27 4 27-40v-127H5v-23h24l9-43h21v43h35v23H59v120" id="aL"/><path fill="#3a414a" d="M177-190C167-65 218 103 67 71c-23-6-38-20-44-43l32-5c15 47 100 32 89-28v-30C133-14 115 1 83 1 29 1 15-40 15-95c0-56 16-97 71-98 29-1 48 16 59 35 1-10 0-23 2-32h30zM94-22c36 0 50-32 50-73 0-42-14-75-50-75-39 0-46 34-46 75s6 73 46 73" id="aM"/><path fill="#3a414a" d="M84 4C-5 8 30-112 23-190h32v120c0 31 7 50 39 49 72-2 45-101 50-169h31l1 190h-30c-1-10 1-25-2-33-11 22-28 36-60 37" id="aN"/><g id="j"><use transform="matrix(0.06172839506172839,0,0,0.06172839506172839,0,0)" xlink:href="#aJ"/><use transform="matrix(0.06172839506172839,0,0,0.06172839506172839,15.987654320987653,0)" xlink:href="#aK"/><use transform="matrix(0.06172839506172839,0,0,0.06172839506172839,28.333333333333332,0)" xlink:href="#aK"/><use transform="matrix(0.06172839506172839,0,0,0.06172839506172839,40.67901234567901,0)" xlink:href="#aL"/><use transform="matrix(0.06172839506172839,0,0,0.06172839506172839,46.851851851851855,0)" xlink:href="#aE"/><use transform="matrix(0.06172839506172839,0,0,0.06172839506172839,61.66666666666667,0)" xlink:href="#aA"/><use transform="matrix(0.06172839506172839,0,0,0.06172839506172839,66.54320987654322,0)" xlink:href="#aM"/><use transform="matrix(0.06172839506172839,0,0,0.06172839506172839,78.8888888888889,0)" xlink:href="#aD"/><use transform="matrix(0.06172839506172839,0,0,0.06172839506172839,91.23456790123458,0)" xlink:href="#aG"/><use transform="matrix(0.06172839506172839,0,0,0.06172839506172839,103.58024691358027,0)" xlink:href="#aL"/><use transform="matrix(0.06172839506172839,0,0,0.06172839506172839,109.7530864197531,0)" xlink:href="#aN"/><use transform="matrix(0.06172839506172839,0,0,0.06172839506172839,122.09876543209879,0)" xlink:href="#aI"/><use transform="matrix(0.06172839506172839,0,0,0.06172839506172839,129.44444444444446,0)" xlink:href="#aB"/></g><path fill="#3a414a" d="M30-248c118-7 216 8 213 122C240-48 200 0 122 0H30v-248zM63-27c89 8 146-16 146-99s-60-101-146-95v194" id="aO"/><path fill="#3a414a" d="M135-143c-3-34-86-38-87 0 15 53 115 12 119 90S17 21 10-45l28-5c4 36 97 45 98 0-10-56-113-15-118-90-4-57 82-63 122-42 12 7 21 19 24 35" id="aP"/><path fill="#3a414a" d="M96-169c-40 0-48 33-48 73s9 75 48 75c24 0 41-14 43-38l32 2c-6 37-31 61-74 61-59 0-76-41-82-99-10-93 101-131 147-64 4 7 5 14 7 22l-32 3c-4-21-16-35-41-35" id="aQ"/><g id="k"><use transform="matrix(0.06172839506172839,0,0,0.06172839506172839,0,0)" xlink:href="#aO"/><use transform="matrix(0.06172839506172839,0,0,0.06172839506172839,15.987654320987653,0)" xlink:href="#aB"/><use transform="matrix(0.06172839506172839,0,0,0.06172839506172839,28.333333333333332,0)" xlink:href="#aP"/><use transform="matrix(0.06172839506172839,0,0,0.06172839506172839,39.44444444444444,0)" xlink:href="#aQ"/><use transform="matrix(0.06172839506172839,0,0,0.06172839506172839,50.55555555555556,0)" xlink:href="#aI"/><use transform="matrix(0.06172839506172839,0,0,0.06172839506172839,57.901234567901234,0)" xlink:href="#aA"/><use transform="matrix(0.06172839506172839,0,0,0.06172839506172839,62.77777777777778,0)" xlink:href="#az"/><use transform="matrix(0.06172839506172839,0,0,0.06172839506172839,75.12345679012346,0)" xlink:href="#aL"/><use transform="matrix(0.06172839506172839,0,0,0.06172839506172839,81.29629629629629,0)" xlink:href="#aK"/><use transform="matrix(0.06172839506172839,0,0,0.06172839506172839,93.64197530864197,0)" xlink:href="#aI"/><use transform="matrix(0.06172839506172839,0,0,0.06172839506172839,100.98765432098766,0)" xlink:href="#aE"/><use transform="matrix(0.06172839506172839,0,0,0.06172839506172839,115.80246913580247,0)" xlink:href="#aB"/><use transform="matrix(0.06172839506172839,0,0,0.06172839506172839,128.14814814814815,0)" xlink:href="#aL"/></g><path fill="#3a414a" d="M87 75C49 33 22-17 22-94c0-76 28-126 65-167h31c-38 41-64 92-64 168S80 34 118 75H87" id="aR"/><path fill="#3a414a" d="M101-234c-31-9-42 10-38 44h38v23H63V0H32v-167H5v-23h27c-7-52 17-82 69-68v24" id="aS"/><path fill="#3a414a" d="M210-169c-67 3-38 105-44 169h-31v-121c0-29-5-50-35-48C34-165 62-65 56 0H25l-1-190h30c1 10-1 24 2 32 10-44 99-50 107 0 11-21 27-35 58-36 85-2 47 119 55 194h-31v-121c0-29-5-49-35-48" id="aT"/><path fill="#3a414a" d="M33-261c38 41 65 92 65 168S71 34 33 75H2C39 34 66-17 66-93S39-220 2-261h31" id="aU"/><g id="l"><use transform="matrix(0.06172839506172839,0,0,0.06172839506172839,0,0)" xlink:href="#aR"/><use transform="matrix(0.06172839506172839,0,0,0.06172839506172839,7.345679012345679,0)" xlink:href="#aN"/><use transform="matrix(0.06172839506172839,0,0,0.06172839506172839,19.691358024691358,0)" xlink:href="#aD"/><use transform="matrix(0.06172839506172839,0,0,0.06172839506172839,32.03703703703704,0)" xlink:href="#aA"/><use transform="matrix(0.06172839506172839,0,0,0.06172839506172839,36.91358024691358,0)" xlink:href="#aS"/><use transform="matrix(0.06172839506172839,0,0,0.06172839506172839,43.086419753086425,0)" xlink:href="#aK"/><use transform="matrix(0.06172839506172839,0,0,0.06172839506172839,55.4320987654321,0)" xlink:href="#aI"/><use transform="matrix(0.06172839506172839,0,0,0.06172839506172839,62.77777777777778,0)" xlink:href="#aT"/><use transform="matrix(0.06172839506172839,0,0,0.06172839506172839,81.23456790123457,0)" xlink:href="#aU"/></g><path fill="#3a414a" d="M212-179c-10-28-35-45-73-45-59 0-87 40-87 99 0 60 29 101 89 101 43 0 62-24 78-52l27 14C228-24 195 4 139 4 59 4 22-46 18-125c-6-104 99-153 187-111 19 9 31 26 39 46" id="aV"/><g id="m"><use transform="matrix(0.06172839506172839,0,0,0.06172839506172839,0,0)" xlink:href="#aV"/><use transform="matrix(0.06172839506172839,0,0,0.06172839506172839,15.987654320987653,0)" xlink:href="#aK"/><use transform="matrix(0.06172839506172839,0,0,0.06172839506172839,28.333333333333332,0)" xlink:href="#aT"/><use transform="matrix(0.06172839506172839,0,0,0.06172839506172839,46.79012345679012,0)" xlink:href="#aT"/><use transform="matrix(0.06172839506172839,0,0,0.06172839506172839,65.24691358024691,0)" xlink:href="#aG"/><use transform="matrix(0.06172839506172839,0,0,0.06172839506172839,77.5925925925926,0)" xlink:href="#aD"/><use transform="matrix(0.06172839506172839,0,0,0.06172839506172839,89.93827160493828,0)" xlink:href="#aH"/></g><g id="n"><use transform="matrix(0.06172839506172839,0,0,0.06172839506172839,0,0)" xlink:href="#aE"/><use transform="matrix(0.06172839506172839,0,0,0.06172839506172839,14.814814814814813,0)" xlink:href="#aG"/><use transform="matrix(0.06172839506172839,0,0,0.06172839506172839,27.160493827160494,0)" xlink:href="#aT"/><use transform="matrix(0.06172839506172839,0,0,0.06172839506172839,45.61728395061728,0)" xlink:href="#az"/><use transform="matrix(0.06172839506172839,0,0,0.06172839506172839,57.962962962962955,0)" xlink:href="#aC"/><use transform="matrix(0.06172839506172839,0,0,0.06172839506172839,62.8395061728395,0)" xlink:href="#aB"/><use transform="matrix(0.06172839506172839,0,0,0.06172839506172839,75.18518518518518,0)" xlink:href="#aI"/></g><path fill="#3a414a" d="M127-220V0H93v-220H8v-28h204v28h-85" id="aW"/><path fill="#3a414a" d="M141 0L90-78 38 0H4l68-98-65-92h35l48 74 47-74h35l-64 92 68 98h-35" id="aX"/><g id="o"><use transform="matrix(0.06172839506172839,0,0,0.06172839506172839,0,0)" xlink:href="#aW"/><use transform="matrix(0.06172839506172839,0,0,0.06172839506172839,11.049382716049381,0)" xlink:href="#aB"/><use transform="matrix(0.06172839506172839,0,0,0.06172839506172839,23.39506172839506,0)" xlink:href="#aX"/><use transform="matrix(0.06172839506172839,0,0,0.06172839506172839,34.50617283950617,0)" xlink:href="#aL"/><use transform="matrix(0.06172839506172839,0,0,0.06172839506172839,40.67901234567901,0)" xlink:href="#aN"/><use transform="matrix(0.06172839506172839,0,0,0.06172839506172839,53.02469135802469,0)" xlink:href="#aI"/><use transform="matrix(0.06172839506172839,0,0,0.06172839506172839,60.37037037037037,0)" xlink:href="#aB"/></g><g id="p"><use transform="matrix(0.06172839506172839,0,0,0.06172839506172839,0,0)" xlink:href="#aR"/><use transform="matrix(0.06172839506172839,0,0,0.06172839506172839,7.345679012345679,0)" xlink:href="#aL"/><use transform="matrix(0.06172839506172839,0,0,0.06172839506172839,13.518518518518519,0)" xlink:href="#aB"/><use transform="matrix(0.06172839506172839,0,0,0.06172839506172839,25.864197530864196,0)" xlink:href="#aX"/><use transform="matrix(0.06172839506172839,0,0,0.06172839506172839,36.9753086419753,0)" xlink:href="#aL"/><use transform="matrix(0.06172839506172839,0,0,0.06172839506172839,43.148148148148145,0)" xlink:href="#aN"/><use transform="matrix(0.06172839506172839,0,0,0.06172839506172839,55.49382716049382,0)" xlink:href="#aI"/><use transform="matrix(0.06172839506172839,0,0,0.06172839506172839,62.8395061728395,0)" xlink:href="#aB"/><use transform="matrix(0.06172839506172839,0,0,0.06172839506172839,75.18518518518518,0)" xlink:href="#aU"/></g><path fill="#3a414a" d="M30 0v-248h33v221h125V0H30" id="aY"/><g id="q"><use transform="matrix(0.06172839506172839,0,0,0.06172839506172839,0,0)" xlink:href="#aW"/><use transform="matrix(0.06172839506172839,0,0,0.06172839506172839,11.049382716049381,0)" xlink:href="#aB"/><use transform="matrix(0.06172839506172839,0,0,0.06172839506172839,23.39506172839506,0)" xlink:href="#aX"/><use transform="matrix(0.06172839506172839,0,0,0.06172839506172839,34.50617283950617,0)" xlink:href="#aL"/><use transform="matrix(0.06172839506172839,0,0,0.06172839506172839,40.67901234567901,0)" xlink:href="#aN"/><use transform="matrix(0.06172839506172839,0,0,0.06172839506172839,53.02469135802469,0)" xlink:href="#aI"/><use transform="matrix(0.06172839506172839,0,0,0.06172839506172839,60.37037037037037,0)" xlink:href="#aB"/><use transform="matrix(0.06172839506172839,0,0,0.06172839506172839,72.71604938271605,0)" xlink:href="#aY"/><use transform="matrix(0.06172839506172839,0,0,0.06172839506172839,85.06172839506173,0)" xlink:href="#aK"/><use transform="matrix(0.06172839506172839,0,0,0.06172839506172839,97.40740740740742,0)" xlink:href="#aG"/><use transform="matrix(0.06172839506172839,0,0,0.06172839506172839,109.7530864197531,0)" xlink:href="#aH"/><use transform="matrix(0.06172839506172839,0,0,0.06172839506172839,122.09876543209879,0)" xlink:href="#aO"/><use transform="matrix(0.06172839506172839,0,0,0.06172839506172839,138.08641975308643,0)" xlink:href="#aB"/><use transform="matrix(0.06172839506172839,0,0,0.06172839506172839,150.4320987654321,0)" xlink:href="#aP"/><use transform="matrix(0.06172839506172839,0,0,0.06172839506172839,161.54320987654322,0)" xlink:href="#aQ"/></g><path fill="#3a414a" d="M160-131c35 5 61 23 61 61C221 17 115-2 30 0v-248c76 3 177-17 177 60 0 33-19 50-47 57zm-97-11c50-1 110 9 110-42 0-47-63-36-110-37v79zm0 115c55-2 124 14 124-45 0-56-70-42-124-44v89" id="aZ"/><g id="r"><use transform="matrix(0.06172839506172839,0,0,0.06172839506172839,0,0)" xlink:href="#aZ"/><use transform="matrix(0.06172839506172839,0,0,0.06172839506172839,14.814814814814813,0)" xlink:href="#aN"/><use transform="matrix(0.06172839506172839,0,0,0.06172839506172839,27.160493827160494,0)" xlink:href="#aS"/><use transform="matrix(0.06172839506172839,0,0,0.06172839506172839,32.901234567901234,0)" xlink:href="#aS"/><use transform="matrix(0.06172839506172839,0,0,0.06172839506172839,39.074074074074076,0)" xlink:href="#aB"/><use transform="matrix(0.06172839506172839,0,0,0.06172839506172839,51.41975308641975,0)" xlink:href="#aI"/></g><g id="s"><use transform="matrix(0.06172839506172839,0,0,0.06172839506172839,0,0)" xlink:href="#aZ"/><use transform="matrix(0.06172839506172839,0,0,0.06172839506172839,14.814814814814813,0)" xlink:href="#aN"/><use transform="matrix(0.06172839506172839,0,0,0.06172839506172839,27.160493827160494,0)" xlink:href="#aS"/><use transform="matrix(0.06172839506172839,0,0,0.06172839506172839,32.901234567901234,0)" xlink:href="#aS"/><use transform="matrix(0.06172839506172839,0,0,0.06172839506172839,39.074074074074076,0)" xlink:href="#aB"/><use transform="matrix(0.06172839506172839,0,0,0.06172839506172839,51.41975308641975,0)" xlink:href="#aI"/><use transform="matrix(0.06172839506172839,0,0,0.06172839506172839,58.76543209876543,0)" xlink:href="#aY"/><use transform="matrix(0.06172839506172839,0,0,0.06172839506172839,71.11111111111111,0)" xlink:href="#aK"/><use transform="matrix(0.06172839506172839,0,0,0.06172839506172839,83.4567901234568,0)" xlink:href="#aG"/><use transform="matrix(0.06172839506172839,0,0,0.06172839506172839,95.80246913580248,0)" xlink:href="#aH"/><use transform="matrix(0.06172839506172839,0,0,0.06172839506172839,108.14814814814817,0)" xlink:href="#aO"/><use transform="matrix(0.06172839506172839,0,0,0.06172839506172839,124.13580246913583,0)" xlink:href="#aB"/><use transform="matrix(0.06172839506172839,0,0,0.06172839506172839,136.4814814814815,0)" xlink:href="#aP"/><use transform="matrix(0.06172839506172839,0,0,0.06172839506172839,147.5925925925926,0)" xlink:href="#aQ"/></g><path fill="#3a414a" d="M140-251c81 0 123 46 123 126C263-53 228-8 163 1c7 30 30 48 69 40v23c-55 16-95-15-103-61C56-3 17-48 17-125c0-80 42-126 123-126zm0 227c63 0 89-41 89-101s-29-99-89-99c-61 0-89 39-89 99S79-25 140-24" id="ba"/><g id="t"><use transform="matrix(0.06172839506172839,0,0,0.06172839506172839,0,0)" xlink:href="#ba"/><use transform="matrix(0.06172839506172839,0,0,0.06172839506172839,17.28395061728395,0)" xlink:href="#aN"/><use transform="matrix(0.06172839506172839,0,0,0.06172839506172839,29.629629629629626,0)" xlink:href="#aB"/><use transform="matrix(0.06172839506172839,0,0,0.06172839506172839,41.9753086419753,0)" xlink:href="#aN"/><use transform="matrix(0.06172839506172839,0,0,0.06172839506172839,54.32098765432098,0)" xlink:href="#aB"/></g><path fill="#3a414a" d="M143 4C61 4 22-44 18-125c-5-107 100-154 193-111 17 8 29 25 37 43l-32 9c-13-25-37-40-76-40-61 0-88 39-88 99 0 61 29 100 91 101 35 0 62-11 79-27v-45h-74v-28h105v86C228-13 192 4 143 4" id="bb"/><g id="u"><use transform="matrix(0.06172839506172839,0,0,0.06172839506172839,0,0)" xlink:href="#bb"/><use transform="matrix(0.06172839506172839,0,0,0.06172839506172839,17.28395061728395,0)" xlink:href="#az"/><use transform="matrix(0.06172839506172839,0,0,0.06172839506172839,29.629629629629626,0)" xlink:href="#aN"/><use transform="matrix(0.06172839506172839,0,0,0.06172839506172839,41.9753086419753,0)" xlink:href="#aV"/><use transform="matrix(0.06172839506172839,0,0,0.06172839506172839,57.962962962962955,0)" xlink:href="#aT"/><use transform="matrix(0.06172839506172839,0,0,0.06172839506172839,76.41975308641975,0)" xlink:href="#aH"/><use transform="matrix(0.06172839506172839,0,0,0.06172839506172839,88.76543209876543,0)" xlink:href="#aJ"/><use transform="matrix(0.06172839506172839,0,0,0.06172839506172839,104.75308641975309,0)" xlink:href="#aA"/><use transform="matrix(0.06172839506172839,0,0,0.06172839506172839,109.62962962962963,0)" xlink:href="#aD"/><use transform="matrix(0.06172839506172839,0,0,0.06172839506172839,121.97530864197532,0)" xlink:href="#aM"/></g><g id="v"><use transform="matrix(0.06172839506172839,0,0,0.06172839506172839,0,0)" xlink:href="#aE"/><use transform="matrix(0.06172839506172839,0,0,0.06172839506172839,14.814814814814813,0)" xlink:href="#aB"/><use transform="matrix(0.06172839506172839,0,0,0.06172839506172839,27.160493827160494,0)" xlink:href="#aT"/><use transform="matrix(0.06172839506172839,0,0,0.06172839506172839,45.61728395061728,0)" xlink:href="#aG"/><use transform="matrix(0.06172839506172839,0,0,0.06172839506172839,57.962962962962955,0)" xlink:href="#az"/><use transform="matrix(0.06172839506172839,0,0,0.06172839506172839,70.30864197530863,0)" xlink:href="#aF"/><use transform="matrix(0.06172839506172839,0,0,0.06172839506172839,82.65432098765432,0)" xlink:href="#aK"/><use transform="matrix(0.06172839506172839,0,0,0.06172839506172839,95,0)" xlink:href="#aI"/><use transform="matrix(0.06172839506172839,0,0,0.06172839506172839,102.34567901234568,0)" xlink:href="#aB"/></g><g id="w"><use transform="matrix(0.0493827160493827,0,0,0.0493827160493827,0,0)" xlink:href="#ba"/><use transform="matrix(0.0493827160493827,0,0,0.0493827160493827,13.827160493827156,0)" xlink:href="#aN"/><use transform="matrix(0.0493827160493827,0,0,0.0493827160493827,23.703703703703695,0)" xlink:href="#aB"/><use transform="matrix(0.0493827160493827,0,0,0.0493827160493827,33.58024691358023,0)" xlink:href="#aN"/><use transform="matrix(0.0493827160493827,0,0,0.0493827160493827,43.45679012345677,0)" xlink:href="#aB"/></g><path fill="#3a414a" d="M115-194c53 0 69 39 70 98 0 66-23 100-70 100C84 3 66-7 56-30L54 0H23l1-261h32v101c10-23 28-34 59-34zm-8 174c40 0 45-34 45-75 0-40-5-75-45-74-42 0-51 32-51 76 0 43 10 73 51 73" id="bc"/><g id="x"><use transform="matrix(0.0493827160493827,0,0,0.0493827160493827,0,0)" xlink:href="#aE"/><use transform="matrix(0.0493827160493827,0,0,0.0493827160493827,11.851851851851848,0)" xlink:href="#aN"/><use transform="matrix(0.0493827160493827,0,0,0.0493827160493827,21.728395061728385,0)" xlink:href="#bc"/><use transform="matrix(0.0493827160493827,0,0,0.0493827160493827,31.604938271604922,0)" xlink:href="#aT"/><use transform="matrix(0.0493827160493827,0,0,0.0493827160493827,46.37037037037035,0)" xlink:href="#aA"/><use transform="matrix(0.0493827160493827,0,0,0.0493827160493827,50.27160493827159,0)" xlink:href="#aL"/><use transform="matrix(0.0493827160493827,0,0,0.0493827160493827,55.20987654320986,0)" xlink:href="#aA"/><use transform="matrix(0.0493827160493827,0,0,0.0493827160493827,59.11111111111109,0)" xlink:href="#aK"/><use transform="matrix(0.0493827160493827,0,0,0.0493827160493827,68.98765432098763,0)" xlink:href="#aD"/></g><g id="y"><use transform="matrix(0.0493827160493827,0,0,0.0493827160493827,0,0)" xlink:href="#aA"/><use transform="matrix(0.0493827160493827,0,0,0.0493827160493827,3.9012345679012332,0)" xlink:href="#aP"/></g><g id="z"><use transform="matrix(0.0493827160493827,0,0,0.0493827160493827,0,0)" xlink:href="#aG"/><use transform="matrix(0.0493827160493827,0,0,0.0493827160493827,9.876543209876539,0)" xlink:href="#aD"/></g><g id="A"><use transform="matrix(0.0493827160493827,0,0,0.0493827160493827,0,0)" xlink:href="#aG"/><use transform="matrix(0.0493827160493827,0,0,0.0493827160493827,9.876543209876539,0)" xlink:href="#aQ"/><use transform="matrix(0.0493827160493827,0,0,0.0493827160493827,18.765432098765423,0)" xlink:href="#aL"/></g><g id="B"><use transform="matrix(0.0493827160493827,0,0,0.0493827160493827,0,0)" xlink:href="#aS"/><use transform="matrix(0.0493827160493827,0,0,0.0493827160493827,4.9382716049382696,0)" xlink:href="#aI"/><use transform="matrix(0.0493827160493827,0,0,0.0493827160493827,10.81481481481481,0)" xlink:href="#aK"/><use transform="matrix(0.0493827160493827,0,0,0.0493827160493827,20.691358024691347,0)" xlink:href="#aT"/></g><g id="C"><use transform="matrix(0.0493827160493827,0,0,0.0493827160493827,0,0)" xlink:href="#aQ"/><use transform="matrix(0.0493827160493827,0,0,0.0493827160493827,8.888888888888886,0)" xlink:href="#aT"/><use transform="matrix(0.0493827160493827,0,0,0.0493827160493827,23.654320987654312,0)" xlink:href="#aH"/></g><path fill="#3a414a" d="M206 0h-36l-40-164L89 0H53L-1-190h32L70-26l43-164h34l41 164 42-164h31" id="bd"/><g id="D"><use transform="matrix(0.06172839506172839,0,0,0.06172839506172839,0,0)" xlink:href="#aE"/><use transform="matrix(0.06172839506172839,0,0,0.06172839506172839,14.814814814814813,0)" xlink:href="#bd"/><use transform="matrix(0.06172839506172839,0,0,0.06172839506172839,30.80246913580247,0)" xlink:href="#aG"/><use transform="matrix(0.06172839506172839,0,0,0.06172839506172839,43.148148148148145,0)" xlink:href="#az"/><use transform="matrix(0.06172839506172839,0,0,0.06172839506172839,55.49382716049382,0)" xlink:href="#aV"/><use transform="matrix(0.06172839506172839,0,0,0.06172839506172839,71.48148148148148,0)" xlink:href="#aF"/><use transform="matrix(0.06172839506172839,0,0,0.06172839506172839,83.82716049382717,0)" xlink:href="#aG"/><use transform="matrix(0.06172839506172839,0,0,0.06172839506172839,96.17283950617285,0)" xlink:href="#aA"/><use transform="matrix(0.06172839506172839,0,0,0.06172839506172839,101.0493827160494,0)" xlink:href="#aD"/></g><g id="E"><use transform="matrix(0.06172839506172839,0,0,0.06172839506172839,0,0)" xlink:href="#aJ"/><use transform="matrix(0.06172839506172839,0,0,0.06172839506172839,15.987654320987653,0)" xlink:href="#aB"/><use transform="matrix(0.06172839506172839,0,0,0.06172839506172839,28.333333333333332,0)" xlink:href="#aD"/><use transform="matrix(0.06172839506172839,0,0,0.06172839506172839,40.67901234567901,0)" xlink:href="#aH"/><use transform="matrix(0.06172839506172839,0,0,0.06172839506172839,53.02469135802469,0)" xlink:href="#aB"/><use transform="matrix(0.06172839506172839,0,0,0.06172839506172839,65.37037037037037,0)" xlink:href="#aI"/><use transform="matrix(0.06172839506172839,0,0,0.06172839506172839,72.71604938271605,0)" xlink:href="#aW"/><use transform="matrix(0.06172839506172839,0,0,0.06172839506172839,83.76543209876543,0)" xlink:href="#aG"/><use transform="matrix(0.06172839506172839,0,0,0.06172839506172839,96.11111111111111,0)" xlink:href="#aI"/><use transform="matrix(0.06172839506172839,0,0,0.06172839506172839,103.4567901234568,0)" xlink:href="#aM"/><use transform="matrix(0.06172839506172839,0,0,0.06172839506172839,115.80246913580248,0)" xlink:href="#aB"/><use transform="matrix(0.06172839506172839,0,0,0.06172839506172839,128.14814814814815,0)" xlink:href="#aL"/></g><g id="F"><use transform="matrix(0.0493827160493827,0,0,0.0493827160493827,0,0)" xlink:href="#aZ"/><use transform="matrix(0.0493827160493827,0,0,0.0493827160493827,11.851851851851848,0)" xlink:href="#aA"/><use transform="matrix(0.0493827160493827,0,0,0.0493827160493827,15.753086419753082,0)" xlink:href="#aD"/><use transform="matrix(0.0493827160493827,0,0,0.0493827160493827,25.629629629629623,0)" xlink:href="#aH"/></g><g id="G"><use transform="matrix(0.0493827160493827,0,0,0.0493827160493827,0,0)" xlink:href="#aJ"/><use transform="matrix(0.0493827160493827,0,0,0.0493827160493827,12.79012345679012,0)" xlink:href="#aB"/><use transform="matrix(0.0493827160493827,0,0,0.0493827160493827,22.666666666666657,0)" xlink:href="#aD"/><use transform="matrix(0.0493827160493827,0,0,0.0493827160493827,32.543209876543195,0)" xlink:href="#aH"/><use transform="matrix(0.0493827160493827,0,0,0.0493827160493827,42.41975308641973,0)" xlink:href="#aB"/><use transform="matrix(0.0493827160493827,0,0,0.0493827160493827,52.29629629629627,0)" xlink:href="#aI"/><use transform="matrix(0.0493827160493827,0,0,0.0493827160493827,58.17283950617281,0)" xlink:href="#aW"/><use transform="matrix(0.0493827160493827,0,0,0.0493827160493827,67.01234567901231,0)" xlink:href="#aG"/><use transform="matrix(0.0493827160493827,0,0,0.0493827160493827,76.88888888888886,0)" xlink:href="#aI"/><use transform="matrix(0.0493827160493827,0,0,0.0493827160493827,82.7654320987654,0)" xlink:href="#aM"/><use transform="matrix(0.0493827160493827,0,0,0.0493827160493827,92.64197530864195,0)" xlink:href="#aB"/><use transform="matrix(0.0493827160493827,0,0,0.0493827160493827,102.51851851851849,0)" xlink:href="#aL"/><use transform="matrix(0.0493827160493827,0,0,0.0493827160493827,107.45679012345676,0)" xlink:href="#aP"/></g><g id="H"><use transform="matrix(0.0493827160493827,0,0,0.0493827160493827,0,0)" xlink:href="#aB"/><use transform="matrix(0.0493827160493827,0,0,0.0493827160493827,9.876543209876539,0)" xlink:href="#aX"/><use transform="matrix(0.0493827160493827,0,0,0.0493827160493827,18.765432098765423,0)" xlink:href="#aB"/><use transform="matrix(0.0493827160493827,0,0,0.0493827160493827,28.64197530864196,0)" xlink:href="#aQ"/><use transform="matrix(0.0493827160493827,0,0,0.0493827160493827,37.530864197530846,0)" xlink:href="#aN"/><use transform="matrix(0.0493827160493827,0,0,0.0493827160493827,47.40740740740738,0)" xlink:href="#aL"/><use transform="matrix(0.0493827160493827,0,0,0.0493827160493827,52.34567901234565,0)" xlink:href="#aB"/><use transform="matrix(0.0493827160493827,0,0,0.0493827160493827,62.22222222222219,0)" xlink:href="#aH"/></g><path fill="#3a414a" d="M179-190L93 31C79 59 56 82 12 73V49c39 6 53-20 64-50L1-190h34L92-34l54-156h33" id="be"/><g id="I"><use transform="matrix(0.0493827160493827,0,0,0.0493827160493827,0,0)" xlink:href="#bc"/><use transform="matrix(0.0493827160493827,0,0,0.0493827160493827,9.876543209876539,0)" xlink:href="#be"/></g><g id="J"><use transform="matrix(0.0493827160493827,0,0,0.0493827160493827,0,0)" xlink:href="#aV"/><use transform="matrix(0.0493827160493827,0,0,0.0493827160493827,12.79012345679012,0)" xlink:href="#aT"/><use transform="matrix(0.0493827160493827,0,0,0.0493827160493827,27.555555555555546,0)" xlink:href="#aH"/></g><path fill="#3a414a" d="M30-248c87 1 191-15 191 75 0 78-77 80-158 76V0H30v-248zm33 125c57 0 124 11 124-50 0-59-68-47-124-48v98" id="bf"/><path fill="#3a414a" d="M143 0L79-87 56-68V0H24v-261h32v163l83-92h37l-77 82L181 0h-38" id="bg"/><g id="K"><use transform="matrix(0.06172839506172839,0,0,0.06172839506172839,0,0)" xlink:href="#bf"/><use transform="matrix(0.06172839506172839,0,0,0.06172839506172839,14.814814814814813,0)" xlink:href="#aI"/><use transform="matrix(0.06172839506172839,0,0,0.06172839506172839,22.160493827160494,0)" xlink:href="#aK"/><use transform="matrix(0.06172839506172839,0,0,0.06172839506172839,34.50617283950617,0)" xlink:href="#aS"/><use transform="matrix(0.06172839506172839,0,0,0.06172839506172839,40.67901234567901,0)" xlink:href="#aA"/><use transform="matrix(0.06172839506172839,0,0,0.06172839506172839,45.55555555555556,0)" xlink:href="#aC"/><use transform="matrix(0.06172839506172839,0,0,0.06172839506172839,50.4320987654321,0)" xlink:href="#aB"/><use transform="matrix(0.06172839506172839,0,0,0.06172839506172839,62.77777777777778,0)" xlink:href="#aW"/><use transform="matrix(0.06172839506172839,0,0,0.06172839506172839,73.82716049382717,0)" xlink:href="#aK"/><use transform="matrix(0.06172839506172839,0,0,0.06172839506172839,86.17283950617285,0)" xlink:href="#bg"/><use transform="matrix(0.06172839506172839,0,0,0.06172839506172839,97.28395061728396,0)" xlink:href="#aB"/><use transform="matrix(0.06172839506172839,0,0,0.06172839506172839,109.62962962962965,0)" xlink:href="#aD"/></g><g id="L"><use transform="matrix(0.06172839506172839,0,0,0.06172839506172839,0,0)" xlink:href="#ba"/><use transform="matrix(0.06172839506172839,0,0,0.06172839506172839,17.28395061728395,0)" xlink:href="#aN"/><use transform="matrix(0.06172839506172839,0,0,0.06172839506172839,29.629629629629626,0)" xlink:href="#aB"/><use transform="matrix(0.06172839506172839,0,0,0.06172839506172839,41.9753086419753,0)" xlink:href="#aI"/><use transform="matrix(0.06172839506172839,0,0,0.06172839506172839,49.32098765432098,0)" xlink:href="#be"/><use transform="matrix(0.06172839506172839,0,0,0.06172839506172839,60.43209876543209,0)" xlink:href="#bf"/><use transform="matrix(0.06172839506172839,0,0,0.06172839506172839,75.2469135802469,0)" xlink:href="#aK"/><use transform="matrix(0.06172839506172839,0,0,0.06172839506172839,87.59259259259258,0)" xlink:href="#aK"/><use transform="matrix(0.06172839506172839,0,0,0.06172839506172839,99.93827160493827,0)" xlink:href="#aC"/></g><g id="M"><use transform="matrix(0.06172839506172839,0,0,0.06172839506172839,0,0)" xlink:href="#aZ"/><use transform="matrix(0.06172839506172839,0,0,0.06172839506172839,14.814814814814813,0)" xlink:href="#aN"/><use transform="matrix(0.06172839506172839,0,0,0.06172839506172839,27.160493827160494,0)" xlink:href="#aS"/><use transform="matrix(0.06172839506172839,0,0,0.06172839506172839,32.901234567901234,0)" xlink:href="#aS"/><use transform="matrix(0.06172839506172839,0,0,0.06172839506172839,39.074074074074076,0)" xlink:href="#aB"/><use transform="matrix(0.06172839506172839,0,0,0.06172839506172839,51.41975308641975,0)" xlink:href="#aI"/><use transform="matrix(0.06172839506172839,0,0,0.06172839506172839,58.76543209876543,0)" xlink:href="#aJ"/><use transform="matrix(0.06172839506172839,0,0,0.06172839506172839,74.75308641975309,0)" xlink:href="#aB"/><use transform="matrix(0.06172839506172839,0,0,0.06172839506172839,87.09876543209877,0)" xlink:href="#aP"/><use transform="matrix(0.06172839506172839,0,0,0.06172839506172839,98.20987654320989,0)" xlink:href="#aK"/><use transform="matrix(0.06172839506172839,0,0,0.06172839506172839,110.55555555555557,0)" xlink:href="#aN"/><use transform="matrix(0.06172839506172839,0,0,0.06172839506172839,122.90123456790126,0)" xlink:href="#aI"/><use transform="matrix(0.06172839506172839,0,0,0.06172839506172839,130.24691358024694,0)" xlink:href="#aQ"/><use transform="matrix(0.06172839506172839,0,0,0.06172839506172839,141.35802469135805,0)" xlink:href="#aB"/></g><path fill="#3a414a" d="M137 0h-34L2-248h35l83 218 83-218h36" id="bh"/><g id="N"><use transform="matrix(0.03703703703703702,0,0,0.03703703703703702,0,0)" xlink:href="#bh"/><use transform="matrix(0.03703703703703702,0,0,0.03703703703703702,8.148148148148145,0)" xlink:href="#aB"/><use transform="matrix(0.03703703703703702,0,0,0.03703703703703702,15.555555555555552,0)" xlink:href="#aI"/><use transform="matrix(0.03703703703703702,0,0,0.03703703703703702,19.962962962962955,0)" xlink:href="#aL"/><use transform="matrix(0.03703703703703702,0,0,0.03703703703703702,23.666666666666657,0)" xlink:href="#aB"/><use transform="matrix(0.03703703703703702,0,0,0.03703703703703702,31.074074074074062,0)" xlink:href="#aX"/></g><g id="O"><use transform="matrix(0.03703703703703702,0,0,0.03703703703703702,0,0)" xlink:href="#aZ"/><use transform="matrix(0.03703703703703702,0,0,0.03703703703703702,8.888888888888886,0)" xlink:href="#aN"/><use transform="matrix(0.03703703703703702,0,0,0.03703703703703702,16.29629629629629,0)" xlink:href="#aS"/><use transform="matrix(0.03703703703703702,0,0,0.03703703703703702,19.740740740740733,0)" xlink:href="#aS"/><use transform="matrix(0.03703703703703702,0,0,0.03703703703703702,23.444444444444436,0)" xlink:href="#aB"/><use transform="matrix(0.03703703703703702,0,0,0.03703703703703702,30.851851851851837,0)" xlink:href="#aI"/></g><g id="P"><use transform="matrix(0.03703703703703702,0,0,0.03703703703703702,0,0)" xlink:href="#aG"/><use transform="matrix(0.03703703703703702,0,0,0.03703703703703702,7.407407407407404,0)" xlink:href="#aD"/><use transform="matrix(0.03703703703703702,0,0,0.03703703703703702,14.814814814814808,0)" xlink:href="#aH"/></g><path fill="#3a414a" d="M33 0v-248h34V0H33" id="bi"/><g id="Q"><use transform="matrix(0.03703703703703702,0,0,0.03703703703703702,0,0)" xlink:href="#bi"/><use transform="matrix(0.03703703703703702,0,0,0.03703703703703702,3.703703703703702,0)" xlink:href="#aD"/><use transform="matrix(0.03703703703703702,0,0,0.03703703703703702,11.111111111111107,0)" xlink:href="#aH"/><use transform="matrix(0.03703703703703702,0,0,0.03703703703703702,18.51851851851851,0)" xlink:href="#aB"/><use transform="matrix(0.03703703703703702,0,0,0.03703703703703702,25.925925925925913,0)" xlink:href="#aX"/></g><g id="R"><use transform="matrix(0.03703703703703702,0,0,0.03703703703703702,0,0)" xlink:href="#aZ"/><use transform="matrix(0.03703703703703702,0,0,0.03703703703703702,8.888888888888886,0)" xlink:href="#aN"/><use transform="matrix(0.03703703703703702,0,0,0.03703703703703702,16.29629629629629,0)" xlink:href="#aS"/><use transform="matrix(0.03703703703703702,0,0,0.03703703703703702,19.740740740740733,0)" xlink:href="#aS"/><use transform="matrix(0.03703703703703702,0,0,0.03703703703703702,23.444444444444436,0)" xlink:href="#aB"/><use transform="matrix(0.03703703703703702,0,0,0.03703703703703702,30.851851851851837,0)" xlink:href="#aI"/></g><path fill="#3a414a" d="M232-93c-1 65-40 97-104 97C67 4 28-28 28-90v-158h33c8 89-33 224 67 224 102 0 64-133 71-224h33v155" id="bj"/><g id="S"><use transform="matrix(0.06172839506172839,0,0,0.06172839506172839,0,0)" xlink:href="#aZ"/><use transform="matrix(0.06172839506172839,0,0,0.06172839506172839,14.814814814814813,0)" xlink:href="#aN"/><use transform="matrix(0.06172839506172839,0,0,0.06172839506172839,27.160493827160494,0)" xlink:href="#aS"/><use transform="matrix(0.06172839506172839,0,0,0.06172839506172839,32.901234567901234,0)" xlink:href="#aS"/><use transform="matrix(0.06172839506172839,0,0,0.06172839506172839,39.074074074074076,0)" xlink:href="#aB"/><use transform="matrix(0.06172839506172839,0,0,0.06172839506172839,51.41975308641975,0)" xlink:href="#aI"/><use transform="matrix(0.06172839506172839,0,0,0.06172839506172839,58.76543209876543,0)" xlink:href="#bj"/><use transform="matrix(0.06172839506172839,0,0,0.06172839506172839,74.75308641975309,0)" xlink:href="#az"/><use transform="matrix(0.06172839506172839,0,0,0.06172839506172839,87.09876543209877,0)" xlink:href="#aH"/><use transform="matrix(0.06172839506172839,0,0,0.06172839506172839,99.44444444444446,0)" xlink:href="#aG"/><use transform="matrix(0.06172839506172839,0,0,0.06172839506172839,111.79012345679014,0)" xlink:href="#aL"/><use transform="matrix(0.06172839506172839,0,0,0.06172839506172839,117.96296296296298,0)" xlink:href="#aB"/><use transform="matrix(0.06172839506172839,0,0,0.06172839506172839,130.30864197530866,0)" xlink:href="#aO"/><use transform="matrix(0.06172839506172839,0,0,0.06172839506172839,146.2962962962963,0)" xlink:href="#aB"/><use transform="matrix(0.06172839506172839,0,0,0.06172839506172839,158.64197530864197,0)" xlink:href="#aP"/><use transform="matrix(0.06172839506172839,0,0,0.06172839506172839,169.7530864197531,0)" xlink:href="#aQ"/></g><g id="T"><use transform="matrix(0.06172839506172839,0,0,0.06172839506172839,0,0)" xlink:href="#aW"/><use transform="matrix(0.06172839506172839,0,0,0.06172839506172839,11.049382716049381,0)" xlink:href="#aB"/><use transform="matrix(0.06172839506172839,0,0,0.06172839506172839,23.39506172839506,0)" xlink:href="#aX"/><use transform="matrix(0.06172839506172839,0,0,0.06172839506172839,34.50617283950617,0)" xlink:href="#aL"/><use transform="matrix(0.06172839506172839,0,0,0.06172839506172839,40.67901234567901,0)" xlink:href="#aN"/><use transform="matrix(0.06172839506172839,0,0,0.06172839506172839,53.02469135802469,0)" xlink:href="#aI"/><use transform="matrix(0.06172839506172839,0,0,0.06172839506172839,60.37037037037037,0)" xlink:href="#aB"/><use transform="matrix(0.06172839506172839,0,0,0.06172839506172839,72.71604938271605,0)" xlink:href="#bj"/><use transform="matrix(0.06172839506172839,0,0,0.06172839506172839,88.70370370370371,0)" xlink:href="#az"/><use transform="matrix(0.06172839506172839,0,0,0.06172839506172839,101.0493827160494,0)" xlink:href="#aH"/><use transform="matrix(0.06172839506172839,0,0,0.06172839506172839,113.39506172839508,0)" xlink:href="#aG"/><use transform="matrix(0.06172839506172839,0,0,0.06172839506172839,125.74074074074076,0)" xlink:href="#aL"/><use transform="matrix(0.06172839506172839,0,0,0.06172839506172839,131.9135802469136,0)" xlink:href="#aB"/><use transform="matrix(0.06172839506172839,0,0,0.06172839506172839,144.25925925925927,0)" xlink:href="#aO"/><use transform="matrix(0.06172839506172839,0,0,0.06172839506172839,160.2469135802469,0)" xlink:href="#aB"/><use transform="matrix(0.06172839506172839,0,0,0.06172839506172839,172.59259259259258,0)" xlink:href="#aP"/><use transform="matrix(0.06172839506172839,0,0,0.06172839506172839,183.7037037037037,0)" xlink:href="#aQ"/></g></defs></g></svg>